<?xml version="1.0" standalone="no"?>
<!DOCTYPE svg PUBLIC "-//W3C//DTD SVG 1.1//EN" "http://www.w3.org/Graphics/SVG/1.1/DTD/svg11.dtd" >
<svg xmlns="http://www.w3.org/2000/svg" xmlns:xlink="http://www.w3.org/1999/xlink" version="1.1">
<metadata>
Created by FontForge 20170731 at Wed Apr 28 03:05:02 2010
 By Aleksey,,,
Copyright (c) ELM, 2009. All rights reserved.
</metadata>
<defs>
<font id="AlwaysRadio" horiz-adv-x="521" >
  <font-face 
    font-family="AlwaysRadio"
    font-weight="400"
    font-stretch="normal"
    units-per-em="1000"
    panose-1="2 0 0 0 0 0 0 0 0 0"
    ascent="800"
    descent="-200"
    x-height="388"
    cap-height="680"
    bbox="-260 -300 1168 875"
    underline-thickness="50"
    underline-position="-150"
    unicode-range="U+0020-201D"
  />
<missing-glyph horiz-adv-x="500" 
 />
    <glyph glyph-name=".notdef" horiz-adv-x="500" 
 />
    <glyph glyph-name=".null" horiz-adv-x="0" 
 />
    <glyph glyph-name="nonmarkingreturn" horiz-adv-x="500" 
 />
    <glyph glyph-name="space" unicode=" " horiz-adv-x="320" 
 />
    <glyph glyph-name="exclam" unicode="!" horiz-adv-x="300" 
d="M188 155h-56l202 523h121zM61 35q0 16 7 30t18.5 25t26 17.5t29.5 6.5q20 0 32.5 -11.5t12.5 -31.5q0 -16 -7 -30t-18.5 -25t-26 -17.5t-29.5 -6.5q-20 0 -32.5 11.5t-12.5 31.5z" />
    <glyph glyph-name="quotedbl" unicode="&#x22;" horiz-adv-x="289" 
d="M259 606q-11 -42 -21.5 -84t-21.5 -84h-17q-8 43 -15.5 85t-15.5 85v7q0 17 12 33.5t37 16.5q23 0 33.5 -11.5t10.5 -29.5v-9t-2 -9zM133 606q-11 -42 -21.5 -84t-21.5 -84h-17q-8 43 -15 85t-15 85q0 2 -0.5 4t-0.5 4q0 17 12.5 33t36.5 16q23 0 33.5 -11.5t10.5 -29.5
v-9t-2 -9z" />
    <glyph glyph-name="numbersign" unicode="#" horiz-adv-x="606" 
d="M522 471h-70l-40 -96h65l-23 -59h-66l-45 -107h-56l45 107h-148l-45 -107h-55l45 107h-75l24 59h75l41 96h-72l24 59h72l44 106h56l-45 -106h148l45 106h55l-45 -106h70zM249 471l-41 -96h148l41 96h-148z" />
    <glyph glyph-name="dollar" unicode="$" horiz-adv-x="687" 
d="M663 779q-15 -27 -30 -53.5t-29 -52.5q22 -16 34.5 -34.5t18.5 -35.5q7 -19 9 -39q-17 -6 -32 -12.5t-32 -12.5l-2 10t-1.5 10t-2.5 10q-2 10 -7.5 23t-14.5 25q-23 -42 -46 -82.5t-46 -82.5q7 -12 13 -24t11 -21q3 -5 5.5 -9t5.5 -9q12 -25 19 -46t12 -48q6 -27 6 -57
q0 -25 -5 -51.5t-19 -52.5q-6 -11 -13 -20q-21 -33 -49.5 -56.5t-60.5 -38.5t-66 -21.5t-67 -6.5q-23 0 -44 3l-45 -81h-59q13 23 25.5 46t25.5 46q-39 13 -71.5 37.5t-52.5 57.5q-26 41 -26 90q0 46 26 88q23 35 51 50t54 15q25 0 44 -11q21 -6 34 -24.5t13 -42.5v-5
q-4 0 -13.5 -1t-21 -4t-24 -8.5t-22.5 -15.5q-29 -29 -29 -70q0 -31 17 -60t48 -46q42 74 82 147t81 147q-11 17 -20 33t-14 27q-9 22 -19.5 49.5t-10.5 60.5q0 34 14 66q4 8 7.5 14.5t8.5 11.5q17 28 39.5 45.5t46 27.5t46 13.5t40.5 3.5q17 0 28.5 -2t22.5 -4l24 42t23 42
h60zM415 170q4 13 4 31q0 14 -2.5 29t-7.5 29q-3 8 -6 16.5t-7 16.5q-35 -63 -70 -125t-70 -125h8q27 0 51.5 11t45 29t34.5 41t20 47zM528 642q-15 0 -28 -4q-21 -5 -40.5 -27.5t-19.5 -52.5q0 -11 3 -21q2 -16 10 -30z" />
    <glyph glyph-name="percent" unicode="%" horiz-adv-x="827" 
d="M184 -85h-78l516 765h77zM784 163q-12 -38 -33.5 -70.5t-48.5 -57t-58 -38.5t-61 -14q-29 0 -51 13.5t-34 37.5t-13.5 56t10.5 70q11 37 32.5 70t49 57t58.5 38t61 14q29 0 51 -13.5t34 -37.5t13.5 -56t-10.5 -69zM729 172q4 26 0 48.5t-14 38.5t-25.5 24t-35.5 5
t-38 -15.5t-33 -31.5t-25 -43.5t-14 -50.5q-3 -26 1 -49t14 -39t25.5 -24t35.5 -5q19 3 37.5 15.5t33 32t25 44t13.5 50.5zM394 512q-11 -37 -32.5 -69.5t-49 -57t-58.5 -38.5t-61 -14q-29 0 -50.5 13.5t-34 37.5t-14 56.5t10.5 69.5t33.5 70t48.5 57.5t58 38.5t61 14
q29 0 51 -14t34 -38t13.5 -56.5t-10.5 -69.5zM339 522q4 26 0 49t-14 39t-25.5 24t-35.5 5t-38 -15.5t-33 -32t-25 -44t-14 -50.5t0 -49t14.5 -39t26 -24t35.5 -5q19 3 37 16t33 32t25.5 43.5t13.5 50.5z" />
    <glyph glyph-name="ampersand" unicode="&#x26;" horiz-adv-x="669" 
d="M573 433q14 0 28.5 -4.5t26.5 -14t19.5 -23.5t7.5 -33q0 -27 -12 -44t-28.5 -27.5t-34 -15.5t-27.5 -8q10 -10 14.5 -27.5t4.5 -37.5q0 -54 -26 -92.5t-65.5 -64t-86.5 -37.5t-89 -12q-19 0 -47 3.5t-58.5 12.5t-61.5 25.5t-55.5 42t-40 62t-15.5 86.5q0 61 20.5 100.5
t51.5 66t67.5 42.5t67.5 29q1 44 8 80t30 68q34 47 80 67t91 20q17 0 40.5 -5.5t44.5 -19t36 -35t15 -53.5q0 -50 -29.5 -83.5t-74 -57.5t-96 -42t-94.5 -35q-77 -31 -111 -73.5t-34 -96.5q0 -28 9.5 -54t29 -46.5t50.5 -32.5t73 -12q35 0 65 10.5t52.5 28.5t35 42t12.5 51
q0 26 -9.5 43t-16.5 22q-3 0 -12.5 -1.5t-22 -4t-26.5 -5.5t-27 -5q-6 -1 -14 -3.5t-15.5 -8.5t-13 -15.5t-6.5 -23.5q-12 0 -22.5 16t-10.5 36q0 25 12.5 41t30.5 25.5t38.5 15t36.5 8.5q49 11 86 18.5t61 18t33.5 27t3.5 46.5zM467 551q20 19 20 44q0 20 -13.5 33
t-36.5 13q-35 0 -57 -18t-34.5 -42.5t-18 -51t-7.5 -43.5q46 17 86 31t61 34z" />
    <glyph glyph-name="quotesingle" unicode="'" horiz-adv-x="200" 
d="M183 570q0 16 7 29.5t18 23.5t25 16t29 6q20 0 33.5 -11.5t13.5 -34.5q0 -40 -19.5 -71.5t-46 -53t-53 -32.5t-41.5 -11q25 19 43.5 42.5t28.5 50.5q-17 2 -27.5 15t-10.5 31z" />
    <glyph glyph-name="parenleft" unicode="(" horiz-adv-x="525" 
d="M642 743q-21 -2 -54.5 -14t-71 -32.5t-74.5 -47.5t-64 -58q-34 -38 -69.5 -91.5t-60.5 -133.5q-18 -59 -25 -111t-5 -99q1 -24 7 -53.5t17.5 -58t29 -53.5t41.5 -39l-17 -43q-12 5 -34 16t-45.5 32t-45.5 53.5t-35 79.5q-18 67 -16 133.5t20 131t52 125.5t81 117
q42 49 93.5 85.5t104 60t102 34.5t88.5 11z" />
    <glyph glyph-name="parenright" unicode=")" horiz-adv-x="555" 
d="M495 592q23 -111 -23 -240.5t-167 -266.5q-39 -44 -78.5 -74.5t-74 -51t-63 -31.5t-44.5 -17l25 61q31 13 60 34.5t54.5 46.5t46 50t33.5 45q31 45 60 99.5t48 112.5q13 40 19.5 72t8.5 59t-0.5 49.5t-7.5 42.5q-8 31 -27.5 57.5t-44.5 46t-51.5 31.5t-47.5 14l20 53
q39 -1 79.5 -12.5t75.5 -35t61.5 -60t37.5 -85.5z" />
    <glyph glyph-name="asterisk" unicode="*" horiz-adv-x="646" 
d="M424 630l24 -1l-72 -48l35 34l-23 1l74 56zM459 477l10 -22l-76 41l46 -15l-10 20l85 -38zM272 653l-12 -20l-15 92l19 -54l12 21l9 -86zM418 539l33 -26l-66 5q-1 -14 -8 -29l72 -98l-61 54l-1 -42l-37 57q-18 -13 -39 -13l-50 -109l17 79l-37 -20l31 58q-10 5 -17.5 12
t-13.5 15l-117 -13l77 27l-36 21l64 3q0 2 -0.5 2.5t-0.5 2.5q0 20 9 35l-72 94l62 -52v42l36 -54q19 14 44 14h1l50 106l-18 -79l37 19l-31 -57q22 -13 33 -36l118 -1zM347 369l-12 -20l-6 86l12 -47l12 19l12 -92zM168 560l12 -20l-88 32l57 -9l-13 20l80 -34zM205 432
l23 -1l-75 -56l39 42l-23 1l72 47z" />
    <glyph glyph-name="plus" unicode="+" horiz-adv-x="422" 
d="M360 291h-117l-54 -130h-81l55 130h-109l23 55h108l51 128h79l-50 -128h118z" />
    <glyph glyph-name="comma" unicode="," horiz-adv-x="180" 
d="M61 39q0 16 7 29.5t18 23.5t25 16t29 6q20 0 33.5 -11.5t13.5 -34.5q0 -40 -19.5 -71.5t-46 -53t-53 -32.5t-41.5 -11q25 19 43.5 42.5t28.5 50.5q-17 2 -27.5 15t-10.5 31z" />
    <glyph glyph-name="hyphen" unicode="-" horiz-adv-x="458" 
d="M410 263q-8 -18 -19 -32q-10 -12 -24 -21.5t-33 -9.5h-240q9 17 20 31q10 12 24 22t33 10h239z" />
    <glyph glyph-name="period" unicode="." horiz-adv-x="180" 
d="M61 35q0 16 7 30t18.5 25t26 17.5t29.5 6.5q20 0 32.5 -11.5t12.5 -31.5q0 -16 -7 -30t-18.5 -25t-26 -17.5t-29.5 -6.5q-20 0 -32.5 11.5t-12.5 31.5z" />
    <glyph glyph-name="slash" unicode="/" horiz-adv-x="467" 
d="M91 -97q-10 -19 -26.5 -29t-33.5 -15q-19 -5 -40 -6l409 777q10 19 27 29t34 15q19 5 42 6z" />
    <glyph glyph-name="zero" unicode="0" horiz-adv-x="628" 
d="M380 534q40 0 81.5 -12.5t74.5 -38t54 -64.5t20 -91q-1 -71 -29.5 -132t-76.5 -106.5t-111 -71.5t-133 -26q-38 0 -76.5 13.5t-69.5 40.5t-50 67t-18 93q1 70 28 130t72.5 104t105.5 69t128 25zM370 451q-41 0 -76 -18t-61 -49t-42.5 -71.5t-21.5 -83.5q-4 -32 2 -60.5
t21 -49.5t38 -33t54 -12q41 0 76 18.5t61.5 49.5t43.5 70.5t22 83.5q4 32 -2.5 60.5t-22 49.5t-39 33t-53.5 12z" />
    <glyph glyph-name="one" unicode="1" horiz-adv-x="386" 
d="M212 0h-134l189 404q-2 -2 -9.5 -11t-22 -19.5t-36 -20t-49.5 -11.5q-27 -2 -47 6.5t-33 21.5t-19.5 25.5t-4.5 18.5q3 1 20 4t39.5 8t47 12t42.5 17q21 11 41 24t42 24t47 18.5t56 8.5h34z" />
    <glyph glyph-name="two" unicode="2" horiz-adv-x="612" 
d="M18 -7q6 75 41 121.5t84.5 75.5t105.5 46.5t103 35t78.5 41t31.5 65.5q0 36 -29 62t-89 26q-51 0 -80.5 -16t-43 -40.5t-13.5 -53.5t8 -55q-20 -10 -42 -10t-40 9t-29.5 26.5t-11.5 41.5q0 40 18.5 72t52 54.5t81 34.5t105.5 12q50 0 91 -14t70.5 -38t45.5 -56.5
t16 -69.5q0 -53 -26.5 -87t-68 -56.5t-93 -37.5t-101.5 -30.5t-93 -34.5t-68 -50q18 9 45 17q23 6 59.5 11.5t89.5 5.5q21 0 45.5 -2.5t45.5 -2.5q30 0 50.5 5.5t35.5 15.5t26 24.5t20 33.5q9 -7 14.5 -22.5t5.5 -44.5q0 -13 -5 -33.5t-24 -40t-56 -34t-101 -14.5
q-39 0 -67 4.5t-50.5 10t-42.5 10t-45 4.5q-29 0 -58 -4t-51.5 -8.5t-34.5 -7.5t-6 -2z" />
    <glyph glyph-name="three" unicode="3" horiz-adv-x="640" 
d="M427 41q7 14 13.5 34t9 42t-1 44.5t-15.5 42.5q-21 34 -52 42.5t-60 5.5q-34 -4 -70 -20l193 209q-26 -5 -56 -9q-26 -4 -59 -6.5t-68 -2.5q-31 0 -51.5 5.5t-33.5 14t-19 19.5t-7 23q-4 27 12 62q8 -3 25 -7q14 -3 38 -6t62 -4h37t51 1t59 2t61 2q70 3 151 7l-216 -242
q43 1 77 -15q14 -7 28 -18t25 -28.5t17.5 -41.5t6.5 -56q0 -65 -31.5 -119.5t-80 -93.5t-107 -61t-113.5 -22q-60 0 -107 16t-79 43.5t-49 64t-17 78.5q0 35 11.5 63.5t30.5 48t44.5 30t54.5 10.5q45 0 64.5 -24.5t19.5 -66.5q-14 3 -33.5 0t-37 -14t-29.5 -32t-10 -55
q2 -38 39 -62.5t93 -24.5q32 0 60 11t51 28.5t40.5 39t28.5 42.5z" />
    <glyph glyph-name="four" unicode="4" horiz-adv-x="675" 
d="M432 318h65q29 0 39 -11.5t10 -25.5q0 -17 -10 -37l-73 -154q6 -1 16.5 -1t20.5 1q22 2 40 6t33 11.5t28 19t26 28.5q10 -40 5 -73q-2 -14 -8 -28.5t-17 -27.5t-28 -23t-42 -15q-29 -6 -63.5 -6t-59.5 2l-61 -131h-117l62 150q-25 7 -55 14q-26 6 -60 12t-72 11
q-26 3 -52 0t-47 -8q-25 -5 -47 -13q39 52 87 119q41 57 94.5 137t115.5 180q23 37 48 54.5t52.5 23t59 4t67.5 -1.5l-337 -421q-1 0 7 0t20.5 -1t27 -2t26.5 -3q18 -3 36.5 -4.5t33.5 -2.5q18 -1 34 -2z" />
    <glyph glyph-name="five" unicode="5" horiz-adv-x="625" 
d="M277 537q39 -1 77 -2q32 -1 68.5 -2t65.5 0q45 0 74.5 3.5t46.5 7.5q20 4 30 10q12 -9 19 -21q5 -11 6 -26.5t-12 -37.5t-47 -37t-79 -10q-27 3 -59 8.5t-61 11.5q-33 6 -66 14l-81 -139q86 18 153 6q28 -5 55 -17.5t47 -35t31.5 -57t9.5 -84.5q-3 -65 -32.5 -117.5
t-75 -89.5t-101 -57t-110.5 -20q-45 0 -87.5 12t-75.5 36.5t-53 60.5t-20 84q0 35 12.5 61t32 43t43 25t44.5 8q22 0 39 -9t28 -22.5t15.5 -29.5t1.5 -30q-11 5 -28.5 4t-34 -9t-28.5 -24t-12 -42q0 -23 10.5 -40.5t27.5 -30t37.5 -19t41.5 -6.5q32 0 59.5 11.5t49.5 29.5
t38.5 40t27.5 43q7 14 13.5 34t9 42t-1 44.5t-15.5 42.5q-11 17 -27 26t-35 13t-40 3t-42 -4q-48 -8 -102 -30l-54 37z" />
    <glyph glyph-name="six" unicode="6" horiz-adv-x="570" 
d="M560 442q4 -25 -6.5 -48t-29.5 -36.5t-42.5 -15t-44.5 15.5q15 12 20 31t-1 36.5t-23.5 30t-45.5 12.5q-33 0 -67 -21t-64 -52t-51.5 -66t-28.5 -64q33 31 72.5 46.5t81.5 15.5q56 0 92.5 -20t56 -52.5t24 -73.5t-3.5 -83t-27.5 -81.5t-46.5 -68.5q-31 -33 -63.5 -54
t-64 -32.5t-60.5 -14t-52 1.5q-58 7 -95.5 32.5t-57 63.5t-23.5 84.5t3.5 96t24 99t39.5 92.5q26 50 61.5 89.5t76.5 67.5t85.5 44t88.5 19q77 5 120.5 -21t51.5 -74zM367 54q10 27 16 62t0.5 67t-27 54t-67.5 22q-34 0 -62 -16.5t-50 -41.5t-36.5 -55t-20.5 -58
q-7 -31 -7.5 -62t9 -56.5t30 -41.5t54.5 -16q30 0 55 12t45 32t35.5 45.5t25.5 52.5z" />
    <glyph glyph-name="seven" unicode="7" horiz-adv-x="555" 
d="M459 455q-49 -12 -97 -22q-41 -8 -86.5 -15t-80.5 -7q-62 0 -87 19.5t-29 43.5q-5 28 8 64q8 -3 25 -7q14 -3 38 -6t62 -4h34.5t45 0.5t50.5 1t52 1.5q60 2 126 4q35 2 53.5 4.5t29.5 4.5q-8 -20 -17 -40.5t-17 -41.5q-3 -2 -17.5 -16t-36 -36.5t-47 -51t-51.5 -60
t-49 -64.5t-39 -63q-33 -66 -54.5 -120.5t-34 -94.5t-17.5 -64.5t-6 -31.5q-11 1 -23 2t-25 1q-26 0 -46.5 -1t-40.5 -2q1 9 10.5 38.5t27 73.5t43 99t60.5 116q30 52 68.5 100.5t74.5 86t62 61.5t31 27z" />
    <glyph glyph-name="eight" unicode="8" horiz-adv-x="554" 
d="M548 410q7 -55 -10 -94.5t-41 -64.5q-28 -30 -66 -49q24 -34 37 -73q11 -33 12.5 -75.5t-21.5 -88.5q-21 -41 -60 -68.5t-86 -39.5t-97 -9t-93 24q-61 29 -87.5 70.5t-31.5 84t6 80t25 59.5q19 29 46 49.5t53 33t45.5 19t23.5 7.5q-13 18 -20 41q-6 20 -7.5 47t9.5 60
q13 42 42 66.5t60.5 36.5t60.5 14.5t44 1.5q23 -1 48.5 -9t47.5 -23.5t38.5 -40.5t21.5 -59zM442 316q26 38 26 79.5t-33 67.5q-16 12 -35.5 17t-40 2t-39 -14.5t-31.5 -32.5q-9 -15 -14 -33t-3.5 -37t11 -37.5t28.5 -33.5q6 -5 14.5 -11.5t16.5 -11.5q9 -6 19 -13
q16 7 32 17q13 8 27 18.5t22 22.5zM349 -12q13 27 16 51.5t-1 46t-13.5 40t-21.5 33.5q-28 36 -73 64q-11 -5 -27.5 -13.5t-33.5 -20.5t-33.5 -26.5t-26.5 -32.5q-16 -26 -22 -53.5t-3 -53t15.5 -48t34.5 -38.5q22 -17 49.5 -21t54 3t49 24.5t36.5 44.5z" />
    <glyph glyph-name="nine" unicode="9" horiz-adv-x="586" 
d="M19 -44q-4 25 5.5 46.5t26.5 33.5t39.5 12t43.5 -17q-15 -12 -19 -32t3 -39t24.5 -32.5t46.5 -13.5q33 0 65 20t59 50t46.5 65.5t27.5 67.5q-33 -31 -72.5 -46.5t-81.5 -15.5q-56 0 -92.5 20t-56 52.5t-24 73.5t3.5 83t27 81.5t47 68.5q31 33 63.5 54t64 32t60.5 14
t52 -1q58 -7 95.5 -32.5t57 -63.5t23.5 -84.5t-3.5 -96t-24.5 -99t-39 -92.5q-26 -50 -59.5 -90.5t-72 -69.5t-81 -44.5t-86.5 -15.5q-75 0 -118 31.5t-51 79.5zM196 328q-10 -27 -16 -62t-0.5 -67t27 -54t67.5 -22q34 0 62 16.5t50 41.5t36.5 55t20.5 58q7 31 7.5 62
t-9 56.5t-30 41.5t-54.5 16q-30 0 -55 -12t-45 -32t-35.5 -45.5t-25.5 -52.5z" />
    <glyph glyph-name="colon" unicode=":" horiz-adv-x="180" 
d="M61 35q0 16 7 30t18.5 25t26 17.5t29.5 6.5q20 0 32.5 -11.5t12.5 -31.5q0 -16 -7 -30t-18.5 -25t-26 -17.5t-29.5 -6.5q-20 0 -32.5 11.5t-12.5 31.5zM159 271q0 16 7 30t18.5 25t26 17.5t29.5 6.5q20 0 32.5 -11.5t12.5 -31.5q0 -16 -7 -30t-18.5 -25t-26 -17.5
t-29.5 -6.5q-20 0 -32.5 11.5t-12.5 31.5z" />
    <glyph glyph-name="semicolon" unicode=";" horiz-adv-x="180" 
d="M159 271q0 16 7 30t18.5 25t26 17.5t29.5 6.5q20 0 32.5 -11.5t12.5 -31.5q0 -16 -7 -30t-18.5 -25t-26 -17.5t-29.5 -6.5q-20 0 -32.5 11.5t-12.5 31.5zM61 39q0 16 7 29.5t18 23.5t25 16t29 6q20 0 33.5 -11.5t13.5 -34.5q0 -40 -19.5 -71.5t-46 -53t-53 -32.5
t-41.5 -11q25 19 43.5 42.5t28.5 50.5q-17 2 -27.5 15t-10.5 31z" />
    <glyph glyph-name="less" unicode="&#x3c;" horiz-adv-x="737" 
d="M665 467l-394 -163l256 -173l-27 -68l-371 235l22 51l548 207z" />
    <glyph glyph-name="equal" unicode="=" horiz-adv-x="653" 
d="M550 412l-22 -58h-311l24 58h309zM488 259l-22 -58h-310l23 58h309z" />
    <glyph glyph-name="greater" unicode="&#x3e;" horiz-adv-x="745" 
d="M659 290l-540 -254l38 93l375 190l-233 147l28 72l352 -200z" />
    <glyph glyph-name="question" unicode="?" horiz-adv-x="500" 
d="M159 35q0 16 7 30t18.5 25t26 17.5t29.5 6.5q20 0 32.5 -11.5t12.5 -31.5q0 -16 -7 -30t-18.5 -25t-26 -17.5t-29.5 -6.5q-20 0 -32.5 11.5t-12.5 31.5zM120 493q0 52 23.5 89.5t59.5 61.5t78 35t79 11q42 0 79 -7.5t64.5 -24.5t43.5 -45.5t16 -71.5q0 -63 -40.5 -111
t-103.5 -77q-26 -12 -55 -28.5t-53.5 -38t-40.5 -48.5t-16 -60q-15 0 -26 19.5t-11 42.5q0 32 9.5 57t26 44.5t38 35t44.5 29.5q45 27 76.5 57.5t31.5 74.5q0 32 -19.5 53t-62.5 21q-35 0 -59.5 -11t-39.5 -28.5t-22 -40t-7 -44.5q0 -18 7.5 -29t17.5 -11q0 -3 -3 -9
t-10.5 -12t-19 -10.5t-27.5 -4.5q-38 0 -58 22.5t-20 58.5z" />
    <glyph glyph-name="at" unicode="@" horiz-adv-x="1010" 
d="M797 223q0 -50 -19 -93.5t-51.5 -76t-76.5 -51.5t-94 -19t-93.5 19t-76 51.5t-51.5 76t-19 93.5t19 93.5t51.5 76t76 51.5t93.5 19t94 -19t76.5 -51.5t51.5 -76t19 -93.5zM740 182q-16 -21 -43.5 -40t-59.5 -19q-5 0 -12.5 0.5t-16 3.5t-17 10.5t-13.5 22.5
q-23 -20 -45 -28t-45 -8h-13q-14 1 -24 8t-16.5 16t-9.5 19t-3 18q0 21 10 47t28 48.5t44 38t58 15.5q3 0 11 -0.5t16.5 -3t17 -8.5t13.5 -17q5 10 10 25h56q-13 -31 -25.5 -61t-25.5 -61q-2 -4 -3.5 -10t-1.5 -12q0 -7 3.5 -15t17.5 -8q13 0 29 7t30 21.5t23.5 35.5t9.5 48
q0 35 -16 62.5t-42 46t-59.5 28.5t-68.5 10q-42 0 -78.5 -16t-63.5 -43t-43 -63.5t-16 -77.5q0 -42 16 -78.5t43 -63.5t63.5 -43t78.5 -16q41 0 77.5 15.5t64.5 41.5t44 60t16 72q-2 -5 -7.5 -12.5t-11.5 -15.5zM609 277q-6 19 -19 22.5t-22 3.5q-15 -2 -31 -12t-29.5 -25.5
t-22 -34.5t-8.5 -40q0 -32 29 -32q20 0 39.5 11.5t27.5 22.5z" />
    <glyph glyph-name="A" unicode="A" horiz-adv-x="903" 
d="M787 158q47 0 81 11.5t57.5 31t39 44t26.5 50.5q3 -1 6 -5q6 -8 6 -19q0 -38 -17 -69t-46 -54t-68 -35.5t-82 -12.5h-27l-41 -100h-64q-18 0 -27.5 6t-13 15.5t-1.5 21t7 23.5l23 53q-63 20 -93 54.5t-30 75.5q0 21 8 38t21 29t30 18t35 6q36 0 60 -18t38 -42l142 329
q-32 0 -56 -9.5t-45 -26t-40 -39t-40 -47.5l-266 -331q-35 -43 -61 -74t-52 -51t-57 -29.5t-74 -9.5q-16 0 -43.5 6t-53.5 23t-45.5 48.5t-19.5 81.5q0 35 11 61t29.5 43t41.5 25.5t47 8.5q25 0 41 -9t24 -22.5t11 -29.5t3 -30q-21 0 -39.5 -3.5t-33 -12.5t-23 -24.5
t-8.5 -40.5q0 -29 18.5 -47.5t58.5 -18.5q16 0 31 4.5t31.5 15t35 28.5t42.5 45l232 292q37 43 64.5 77.5t51 60.5t45.5 44.5t48.5 30.5t59.5 17.5t79 5.5h94zM581 251q0 -24 19.5 -45.5t67.5 -34.5q10 24 9.5 44.5t-9 36.5t-22 25t-29.5 9q-18 0 -27 -12t-9 -23z" />
    <glyph glyph-name="B" unicode="B" horiz-adv-x="790" 
d="M633 212q1 38 -22.5 62.5t-58.5 39t-77 21.5t-79 12l-104 -251q15 -9 39 -15q20 -5 50 -9.5t71 -4.5q47 0 81 11t56 30.5t32.5 46t11.5 57.5zM411 383q47 -1 87 4.5t70.5 19.5t50 37t25.5 58q5 27 -3 48t-25.5 35.5t-43 22t-55.5 7.5q-6 -6 -12 -14q-5 -7 -11.5 -17
t-11.5 -24zM253 284l99 238q12 25 26 43t27 29.5t22.5 17.5t11.5 7l-37 -1q-45 -1 -94 -9.5t-89.5 -29t-66.5 -55.5t-26 -89q0 -25 8 -41t19 -25t22.5 -12.5t19.5 -3.5q0 -6 -3.5 -16.5t-12.5 -20.5t-24.5 -17.5t-38.5 -7.5q-30 0 -51.5 10.5t-36 28t-21.5 40t-7 46.5
q0 52 20 92t52.5 69.5t75 49t87.5 31.5t89 17t81 5q25 0 61.5 -1t76.5 -6t79.5 -14.5t70.5 -27.5t50 -44.5t19 -64.5q-1 -47 -23.5 -78.5t-52.5 -50.5t-59.5 -26.5t-43.5 -7.5q3 -1 17.5 -3.5t34.5 -9t42.5 -17t41.5 -27t31.5 -40t12.5 -54.5q0 -56 -24 -97t-61.5 -67.5
t-84 -39t-92.5 -12.5q-59 0 -102 7.5t-72 17.5q-33 11 -57 26q-5 -12 -13 -22q-8 -8 -19.5 -14.5t-29.5 -6.5h-84z" />
    <glyph glyph-name="C" unicode="C" horiz-adv-x="637" 
d="M317 -8q-67 0 -117 18t-83.5 51.5t-50 80.5t-16.5 106q0 98 37 178t98 136.5t139 87t160 30.5q55 0 95.5 -12.5t67 -32t39.5 -44t13 -49.5q0 -35 -17 -58.5t-40.5 -37t-48.5 -16.5t-41 3q13 10 22 26.5t9 43.5q0 38 -32 55.5t-77 17.5q-70 0 -127 -29.5t-97.5 -76.5
t-62.5 -106t-22 -118q0 -49 14.5 -83t39.5 -55t57 -30.5t67 -9.5q69 0 131 20t111.5 51t83.5 67.5t48 69.5q3 -1 6 -5q6 -8 6 -19q0 -39 -33 -84.5t-89.5 -84.5t-131.5 -65t-158 -26z" />
    <glyph glyph-name="D" unicode="D" horiz-adv-x="785" 
d="M661 397q0 47 -11.5 82t-32.5 60t-50 41t-63 25q-7 -7 -24 -29.5t-38 -73.5l-178 -425q14 -8 35 -14t50 -6q61 0 117 24.5t99.5 69t69.5 107t26 139.5zM0 416q0 51 20 91t52 69t72 49t81 32.5t78 17.5t64 5q94 0 170.5 -17.5t131.5 -54.5t85 -93.5t30 -134.5
q0 -94 -34 -166t-88 -121t-122.5 -74.5t-137.5 -25.5q-57 0 -97 12t-65 26q-9 -14 -22.5 -22.5t-31.5 -8.5h-84l129 284q11 26 23 56q11 26 24.5 58.5t28.5 67.5t30.5 59t32 41.5t32 29t30.5 20.5q-13 1 -26 1.5t-26 0.5q-45 0 -90.5 -10t-81.5 -31.5t-59 -56.5t-23 -85
q0 -25 8 -41t19 -25t22.5 -12.5t19.5 -3.5q0 -6 -3.5 -16.5t-12.5 -20.5t-24.5 -17.5t-38.5 -7.5q-30 0 -51.5 10.5t-36 28t-21.5 40t-7 46.5z" />
    <glyph glyph-name="E" unicode="E" horiz-adv-x="592" 
d="M298 68q69 0 131 20t111.5 51t83.5 67.5t48 69.5q3 -1 6 -5q6 -8 6 -19q0 -39 -33 -84.5t-89.5 -84.5t-131.5 -65t-158 -26q-55 0 -98 14t-73 39t-45.5 60t-15.5 77q0 54 24 91t58.5 60.5t72.5 35t66 13.5q-22 8 -40 35.5t-18 72.5q0 50 25 86t63 59t83.5 34t87.5 11
q27 0 58.5 -5t57.5 -19t43.5 -39t17.5 -65q0 -26 -11.5 -45t-31 -30.5t-44 -14.5t-50.5 5q6 7 10 17q4 8 7.5 19.5t3.5 26.5q0 39 -21.5 54.5t-60.5 15.5q-22 0 -44.5 -7t-41 -21.5t-30 -37.5t-11.5 -54q0 -27 6.5 -46t23 -31t44 -17.5t69.5 -5.5q0 -29 -10.5 -40t-41.5 -11
q-43 0 -85.5 -5t-76 -21t-54.5 -45.5t-21 -78.5q0 -34 11.5 -55.5t30 -34t41.5 -17t47 -4.5z" />
    <glyph glyph-name="F" unicode="F" horiz-adv-x="730" 
d="M258 181q-8 0 -16 -10t-8 -27q0 -20 16 -33t42 -13q38 0 74 17.5t68 47t59.5 68.5t50.5 83q-38 -6 -65 -11.5t-44.5 -15.5t-26 -26t-8.5 -41q-8 0 -20 0.5t-23.5 6.5t-20 18.5t-8.5 36.5q0 28 12.5 47t33.5 31t47.5 18t54.5 8t55 2h49q20 43 34.5 79.5t24.5 64.5
q11 32 20 59q-17 6 -43 10q-22 4 -55.5 7t-79.5 3q-48 0 -107.5 -5t-112 -18t-88 -36.5t-35.5 -59.5q0 -22 9 -35.5t21 -13.5q0 -4 -4 -11.5t-12.5 -15t-22.5 -13.5t-34 -6q-48 0 -71.5 28.5t-23.5 71.5q0 41 20 71t52.5 51.5t74.5 34.5t87 20.5t89 10.5t80 3q69 0 127 -7
t103.5 -16.5t77 -18t48.5 -11.5q-3 -27 -14 -65q-9 -32 -25.5 -78.5t-42.5 -106.5q31 -2 52 -3t35.5 -1.5t24.5 -0.5h20q0 -26 -10 -36t-30.5 -12.5t-50.5 -2.5t-70 -5q-8 -16 -14 -29.5t-12.5 -26.5t-14 -27.5t-19.5 -33.5q-29 -46 -64 -85t-74.5 -68t-83.5 -45.5
t-92 -16.5q-35 0 -68.5 7.5t-59 24t-41 43.5t-15.5 66t25.5 68t67.5 29q28 0 51.5 -12t23.5 -37z" />
    <glyph glyph-name="G" unicode="G" horiz-adv-x="681" 
d="M346 -27q-38 -6 -78.5 -18.5t-74 -32t-55 -46.5t-21.5 -63q0 -21 14.5 -33.5t37.5 -12.5q35 0 60.5 16t45.5 44t36.5 65.5t34.5 80.5zM469 275q9 20 25.5 37t42.5 17h85l-119 -264q35 5 69 12.5t64.5 24t56.5 45t45 73.5q3 -2 7 -6q2 -4 4.5 -11.5t2.5 -19.5
q0 -72 -74.5 -122t-204.5 -70q-35 -84 -68 -143t-65 -86q-45 -37 -89 -49.5t-91 -12.5q-53 0 -86.5 30.5t-33.5 86.5q0 54 32 93t81.5 66t109.5 44.5t115 29.5l44 106q-32 -22 -72.5 -36.5t-89.5 -14.5q-47 0 -86 14.5t-66.5 41.5t-43 65.5t-15.5 87.5q0 89 34 157.5
t90.5 115t128.5 70t149 23.5q55 0 96 -12.5t68 -32t40.5 -44t13.5 -49.5q0 -35 -17 -58.5t-40.5 -37t-48.5 -16.5t-41 3q13 10 22 26.5t9 43.5q0 16 -9 29t-24.5 23t-36 15.5t-42.5 5.5q-70 0 -122 -24t-87 -62.5t-52.5 -86t-17.5 -94.5q0 -44 13 -69.5t33 -39.5t43 -18
t44 -4q38 0 68.5 12t53 28t35.5 32t17 25z" />
    <glyph glyph-name="H" unicode="H" horiz-adv-x="866" 
d="M319 200q-38 -6 -77.5 -13.5t-71.5 -20.5t-52.5 -34t-20.5 -55q0 -32 16.5 -46t36.5 -14q34 0 58 12.5t43 36t34.5 57.5t33.5 77zM850 602q29 0 39 -11.5t10 -25.5q0 -17 -10 -37l-176 -391q-5 -12 -6.5 -24t2.5 -21.5t13.5 -15t26.5 -5.5q18 0 41 8.5t46.5 26.5
t45.5 46.5t38 67.5q3 -2 7 -6q2 -4 4.5 -11.5t2.5 -19.5q0 -35 -20 -69t-53 -61t-74.5 -44t-84.5 -17q-47 0 -72.5 17.5t-35 43t-6.5 55.5t14 56l48 114q-13 -12 -35 -21t-49.5 -16t-58.5 -12.5t-62 -10.5q-22 -58 -49 -107t-62.5 -85t-81 -56t-103.5 -20q-66 0 -97.5 32
t-31.5 88q0 57 31 92t79 57t106.5 34t113.5 24l106 261q23 56 59 86q-56 -4 -108 -12t-93 -25.5t-65.5 -47t-24.5 -76.5q0 -25 9.5 -41t22 -25t25 -12.5t19.5 -3.5q0 -6 -6 -15.5t-18 -18.5t-29.5 -15.5t-40.5 -6.5q-29 0 -49.5 10.5t-33.5 28t-19 39.5t-6 45
q0 66 30.5 107.5t79.5 65.5t109.5 34t120.5 14.5t113 7t86 10.5l-162 -395q27 4 60 9.5t64 15.5t56 25t36 37l94 223h65z" />
    <glyph glyph-name="I" unicode="I" horiz-adv-x="531" 
d="M434 164q-22 -53 -51.5 -86.5t-61.5 -52.5t-65.5 -26t-62.5 -7q-21 0 -48 5t-50 19.5t-39 39.5t-16 65q0 29 9.5 51.5t24.5 37.5t34 22.5t37 7.5q27 0 44 -7.5t26.5 -19.5t13 -26.5t3.5 -27.5q-19 5 -37 4.5t-31.5 -7t-21.5 -20.5t-8 -36q0 -23 17 -37t43 -14
q29 0 49 11.5t35.5 34t29 54t30.5 72.5l129 317q23 56 59 86h-23q-45 0 -92.5 -9.5t-86.5 -31t-64 -58t-25 -90.5q0 -25 8.5 -40.5t20.5 -24.5t24.5 -12.5t20.5 -4.5q-2 -6 -8 -16t-17 -19.5t-27 -16.5t-39 -7q-27 0 -47 10t-34 27t-21 39t-7 46q0 52 20.5 92t53.5 69.5
t74.5 49t83.5 31.5t80 17t65 5q38 0 68.5 -4.5t52 -10.5t33.5 -11t13 -5q0 -1 -6 -7t-15.5 -19t-21 -33.5t-23.5 -50.5z" />
    <glyph glyph-name="J" unicode="J" horiz-adv-x="571" 
d="M393 65q35 5 69 12.5t64.5 24t56.5 45t45 73.5q3 -2 7 -6q2 -4 4.5 -11.5t2.5 -19.5q0 -72 -74.5 -122t-204.5 -70q-35 -84 -68 -143t-65 -86q-45 -37 -89 -49.5t-91 -12.5q-53 0 -86.5 30.5t-33.5 86.5q0 54 32 93t81.5 66t109.5 44.5t115 29.5l199 488q23 56 59 86h-23
q-45 0 -92.5 -9.5t-86.5 -31t-64 -58t-25 -90.5q0 -25 8.5 -40.5t20.5 -24.5t24.5 -12.5t20.5 -4.5q-2 -6 -8 -16t-17 -19.5t-27 -16.5t-39 -7q-27 0 -47 10t-34 27t-21 39t-7 46q0 52 20.5 92t53.5 69.5t74.5 49t83.5 31.5t80 17t65 5q38 0 68.5 -4.5t52 -10.5t33.5 -11
t13 -5q0 -1 -6 -7t-15.5 -19t-21 -33.5t-23.5 -50.5zM236 -27q-38 -6 -78.5 -18.5t-74 -32t-55 -46.5t-21.5 -63q0 -21 14.5 -33.5t37.5 -12.5q35 0 60.5 16t45.5 44t36.5 65.5t34.5 80.5z" />
    <glyph glyph-name="K" unicode="K" horiz-adv-x="765" 
d="M389 322q23 5 41 12.5t39.5 19t41.5 29.5q44 39 76.5 83.5t61.5 82.5t58.5 63t68.5 25q41 0 64.5 -17.5t23.5 -52.5q0 -15 -5 -28.5t-12.5 -24t-16.5 -16.5t-17 -6q0 10 -7 18.5t-24 8.5q-23 0 -43.5 -20t-49.5 -51.5t-70.5 -71t-104.5 -78.5q21 -114 51 -168t70 -59
q19 -3 44 4t51 25t50 48t42 72q3 -2 7 -6q2 -4 4.5 -11.5t2.5 -19.5q0 -35 -20.5 -69t-53 -61t-74 -44t-83.5 -17q-50 0 -84.5 29.5t-56.5 71.5t-34.5 89t-19.5 82l-50 -16l-81 -197q-6 -15 -16 -26q-8 -10 -21 -17.5t-30 -7.5h-85l129 284l102 254q23 56 59 86
q-56 -4 -108 -12t-93 -25.5t-65.5 -47t-24.5 -76.5q0 -25 9.5 -41t22 -25t25 -12.5t19.5 -3.5q0 -6 -6 -15.5t-18 -18.5t-29.5 -15.5t-40.5 -6.5q-29 0 -49.5 10.5t-33.5 28t-19 39.5t-6 45q0 66 30.5 107.5t79.5 65.5t109.5 34t120.5 14.5t113 7t86 10.5z" />
    <glyph glyph-name="L" unicode="L" horiz-adv-x="723" 
d="M541 64q91 0 149 40.5t90 115.5q3 -2 7 -6q2 -4 4.5 -11.5t2.5 -19.5q0 -35 -22 -69t-59 -61t-87 -44t-105 -17q-58 0 -101 17t-84 42q-22 -23 -64.5 -41t-86.5 -18q-23 0 -48.5 6t-47 19.5t-35.5 36.5t-14 57q0 31 14 53.5t35 36.5t45 21t44 7q30 0 61 -11t57 -31l37 85
q-17 -3 -32 -3q-32 0 -57 10.5t-25 33.5q42 0 75 3.5t65 17.5l87 199q33 79 84.5 113t117.5 34q53 0 82.5 -30.5t29.5 -85.5q0 -53 -31.5 -95.5t-77 -76t-96.5 -57t-90 -36.5l-73 -177q52 -33 88 -45.5t61 -12.5zM693 564q0 20 -8 33t-28 13q-9 0 -21.5 -3t-26 -12t-27 -26
t-25.5 -45l-63 -153q19 6 53 24t66 44.5t56 58.5t24 66zM260 107q-20 18 -45 31t-52 13q-7 0 -17.5 -1.5t-20 -6t-16.5 -14.5t-7 -26q0 -23 17.5 -37t45.5 -14q27 0 55.5 15t39.5 40z" />
    <glyph glyph-name="M" unicode="M" horiz-adv-x="1099" 
d="M633 687q-13 -15 -23 -33q-8 -16 -14 -39t-4 -53l41 -364l279 388q19 26 49.5 38.5t52.5 12.5h51q-2 -11 -15.5 -58t-30.5 -116.5t-34 -154.5t-27 -172q-1 -11 -2 -23.5t1 -23t9.5 -18t24.5 -7.5q18 0 40 10.5t44 30t42.5 48.5t36.5 67q3 -2 7 -6q2 -4 4.5 -11.5
t2.5 -19.5q0 -31 -18.5 -64.5t-51 -61.5t-77.5 -46.5t-98 -18.5q-43 0 -65.5 16.5t-30.5 42t-6 56.5t7 59q19 87 35.5 148.5t29.5 100.5q15 46 28 75q5 11 8.5 19t8.5 14l-1 1q-7 -8 -14.5 -18l-15 -20t-13 -18t-8.5 -11l-322 -452q-9 -12 -18 -12q-4 0 -7 2.5t-4 13.5
l-49 469l-113 -315q-12 -33 -27 -64t-38 -55t-57.5 -38t-84.5 -14q-26 0 -55.5 7.5t-54 24.5t-40.5 43.5t-16 64.5q0 31 9.5 51.5t25 33.5t34 18.5t36.5 5.5t30 -5.5t18.5 -13.5t9.5 -17t3 -16q-7 0 -15 -3t-15.5 -11t-12.5 -21t-5 -32q0 -34 21.5 -50.5t49.5 -16.5
q41 0 66 18.5t39 56.5l164 428q10 26 19 40t20 24q-50 -3 -99.5 -11t-89 -25t-64 -46.5t-24.5 -76.5q0 -25 9.5 -41t22 -25t25 -12.5t19.5 -3.5q0 -6 -6 -15.5t-18 -18.5t-29.5 -15.5t-40.5 -6.5q-29 0 -49.5 10.5t-33.5 28t-19 39.5t-6 45q0 66 30.5 107.5t79.5 65.5
t109.5 34t120.5 14.5t113 7t86 10.5z" />
    <glyph glyph-name="N" unicode="N" horiz-adv-x="880" 
d="M183 55q45 0 75.5 26.5t53.5 81.5l157 376q8 20 14.5 33.5t11 22.5t8.5 15t7 12q-46 -5 -97 -13t-94 -25.5t-71 -47t-28 -76.5q0 -23 9.5 -38.5t22 -24.5t25 -12.5t19.5 -3.5q0 -6 -6 -15.5t-18 -18.5t-29.5 -15.5t-40.5 -6.5q-29 0 -50.5 10.5t-36 27.5t-22 40t-7.5 49
q0 49 20 83.5t53.5 58.5t77.5 38.5t92.5 23t98 12.5t95 6.5t83 4.5t60.5 8q-11 -26 -13.5 -55.5t6.5 -67.5l78 -324q4 -16 6 -29t4 -22q2 -11 3 -19l173 416q6 14 16 25q8 10 20.5 18t30.5 8h25l-264 -637h-35q-31 0 -49.5 21.5t-26.5 53.5q-29 122 -52 220q-10 42 -20 82
t-17.5 72.5t-13 54t-6.5 25.5q-2 -12 -14 -45l-123 -302q-17 -42 -37.5 -76.5t-46.5 -60t-58.5 -39.5t-73.5 -14q-33 0 -65 7.5t-57 24.5t-40.5 43.5t-15.5 64.5q0 31 9.5 51.5t25 33.5t34 18.5t36.5 5.5t30 -5.5t18.5 -13.5t9.5 -17t3 -16q-7 0 -15 -3t-15.5 -11t-12.5 -21
t-5 -32q0 -34 21 -50.5t44 -16.5z" />
    <glyph glyph-name="O" unicode="O" horiz-adv-x="664" 
d="M447 680q44 0 73 -11t46 -26t24 -30.5t7 -24.5q-20 13 -49.5 21t-80.5 8q-42 0 -94.5 -19t-98 -60.5t-76.5 -108.5t-31 -163q0 -40 10.5 -75t31 -60.5t49.5 -40t67 -14.5q63 0 112 34t83 86.5t51.5 114t17.5 117.5q0 39 -15.5 56t-39.5 17q-12 0 -25.5 -5t-25 -15.5
t-19 -27t-7.5 -40.5q0 -22 7 -34.5t16 -18.5t18.5 -7.5t15.5 -1.5q0 -5 -4 -15t-13.5 -20t-24.5 -17.5t-36 -7.5q-17 0 -33 7t-28.5 21t-20 34.5t-7.5 48.5q0 41 16.5 74t43 56t59 35t65.5 12q40 0 66 -15.5t41.5 -38.5t21.5 -50t6 -50q0 -74 -26.5 -151t-76 -139.5
t-120 -102.5t-158.5 -40q-46 0 -89.5 17t-77 50.5t-54 83t-20.5 114.5q0 90 33.5 167.5t89.5 134.5t128.5 89t151.5 32z" />
    <glyph glyph-name="P" unicode="P" horiz-adv-x="706" 
d="M342 260q70 -12 126 1t95 45.5t60 81.5t21 110q0 46 -30 81t-97 38q-5 -3 -11.5 -8t-15 -15.5t-18 -27.5t-21.5 -45zM322 499q23 54 53 81.5t64 41.5h-7q-64 0 -119.5 -18.5t-97 -51.5t-65 -79t-23.5 -101q0 -20 6.5 -33.5t15.5 -22t19 -12.5t16 -4q0 -5 -4 -14t-13 -18
t-23.5 -15.5t-35.5 -6.5q-35 0 -56 14t-32.5 33.5t-15.5 41t-4 36.5q0 69 37.5 126t102.5 97.5t153.5 63t189.5 22.5q50 0 101 -11t92.5 -35t67.5 -63t26 -95q0 -62 -20.5 -109.5t-55 -80.5t-79 -52t-93.5 -25t-98 1.5t-92 27.5l-79 -187q-6 -15 -16 -26q-8 -10 -21 -17.5
t-30 -7.5h-85l129 284z" />
    <glyph glyph-name="Q" unicode="Q" horiz-adv-x="745" 
d="M30 -149q0 19 12 36.5t33 31.5q28 18 64.5 41.5t65.5 44.5q-34 12 -63.5 33.5t-51 53t-34 73t-12.5 92.5q0 90 33.5 167.5t89.5 134.5t128.5 89t151.5 32q44 0 73 -11t46 -26t24 -30.5t7 -24.5q-20 13 -49.5 21t-80.5 8q-42 0 -94.5 -19t-98 -60.5t-76.5 -108.5t-31 -163
q0 -40 10.5 -75t31 -60.5t49.5 -40t67 -14.5q63 0 112 34t83 86.5t51.5 114t17.5 117.5q0 39 -15.5 56t-39.5 17q-12 0 -25.5 -5t-25 -15.5t-19 -27t-7.5 -40.5q0 -22 7 -34.5t16 -18.5t18.5 -7.5t15.5 -1.5q0 -5 -4 -15t-13.5 -20t-24.5 -17.5t-36 -7.5q-17 0 -33 7
t-28.5 21t-20 34.5t-7.5 48.5q0 41 16.5 74t43 56t59 35t65.5 12q40 0 66 -15.5t41.5 -38.5t21.5 -50t6 -50q0 -74 -26.5 -151t-76 -139.5t-120 -102.5t-158.5 -40h-7q-13 -11 -31.5 -22.5t-39.5 -25.5q37 -4 72 -17t67 -26.5t60 -24.5t50 -11q36 0 57.5 9t32.5 20t14.5 22
t3.5 15q10 0 22 -17.5t12 -39.5q0 -33 -14.5 -58t-37.5 -41t-51.5 -24t-57.5 -8q-56 0 -99.5 20.5t-81.5 45.5t-74 45.5t-76 20.5q-36 0 -54 -9.5t-22 -14.5z" />
    <glyph glyph-name="R" unicode="R" horiz-adv-x="740" 
d="M350 280q103 5 173 38t101 108q10 25 13.5 57.5t-6.5 61.5t-36 49t-74 21q-3 -3 -11 -10t-19 -19.5t-24 -33t-26 -50.5zM322 499q23 54 53 81.5t64 41.5h-7q-64 0 -119.5 -18.5t-97 -51.5t-65 -79t-23.5 -101q0 -20 6.5 -33.5t15.5 -22t19 -12.5t16 -4q0 -5 -4 -14
t-13 -18t-23.5 -15.5t-35.5 -6.5q-35 0 -56 14t-32.5 33.5t-15.5 41t-4 36.5q0 69 37.5 126t102.5 97.5t153.5 63t189.5 22.5q55 0 105.5 -9.5t89 -32t61.5 -60t23 -92.5q0 -45 -22 -85.5t-56.5 -73.5t-75.5 -56t-80 -33q10 -53 19 -85.5t19.5 -50.5t23 -24.5t30.5 -6.5
q19 0 42.5 7.5t47.5 24.5t46.5 46t40.5 71q3 -2 7 -6q2 -4 4.5 -11.5t2.5 -19.5q0 -35 -20.5 -69t-53 -61t-73.5 -44t-82 -17q-50 0 -80.5 22t-48.5 55t-27 72.5t-16 74.5l-91 -9l-66 -156q-6 -15 -16 -26q-8 -10 -21 -17.5t-30 -7.5h-85l129 284z" />
    <glyph glyph-name="S" unicode="S" horiz-adv-x="590" 
d="M682 555q0 -14 -4 -29t-13.5 -27t-25 -20t-37.5 -8q-21 0 -33 7.5t-18 17.5q-7 11 -9 26q6 0 14.5 1.5t17 6.5t14.5 14t6 24q0 24 -15 39.5t-49 15.5q-36 0 -59 -21t-23 -66q0 -46 16.5 -78t36 -63.5t36 -68.5t16.5 -94q0 -65 -27.5 -110.5t-71.5 -74.5t-99 -42t-110 -13
q-121 0 -183 52t-62 149q0 35 12 63.5t32 48.5t46 30.5t55 10.5q45 0 64.5 -24.5t19.5 -66.5q-15 -1 -34.5 -4t-36 -13t-28 -30t-11.5 -54q0 -47 32 -75t89 -28q38 0 70.5 11t56 31.5t36.5 49.5t13 64q0 47 -16 82t-34.5 67t-34.5 66.5t-16 81.5q0 48 17.5 81.5t45.5 54.5
t63.5 30.5t72.5 9.5q76 0 122 -34t46 -91z" />
    <glyph glyph-name="T" unicode="T" horiz-adv-x="700" 
d="M613 579q-14 -14 -22 -34.5t-19 -46.5l-138 -333q-20 -49 -46 -82t-58 -53.5t-70 -29t-81 -8.5q-31 0 -63 8t-57.5 26t-42 46t-16.5 68q0 36 11.5 61.5t28.5 42t38 24t41 7.5q25 0 41 -8t26 -20t14 -26.5t4 -27.5q-18 0 -34 -3t-27.5 -10.5t-18.5 -21.5t-7 -35
q0 -32 19.5 -50t53.5 -18q47 0 74.5 26t50.5 82l130 307q13 32 25 53t24 34.5t23.5 21.5t25.5 14q-33 5 -55 8.5t-38 5.5t-27 2.5t-22 0.5q-25 0 -53 -5t-52 -18.5t-39.5 -38t-15.5 -63.5q0 -20 6 -34.5t15 -25t18.5 -15.5t16.5 -5q0 -3 -5 -9.5t-15 -12.5t-23.5 -10.5
t-31.5 -4.5q-30 0 -52 11.5t-36 29.5t-21 40.5t-7 45.5q0 54 21.5 90.5t55.5 59.5t76 33t83 10q56 0 109.5 -9.5t102 -21t91 -21t77.5 -9.5q38 0 51.5 13t13.5 28q0 21 -9.5 27.5t-19.5 6.5q0 12 15.5 28t45.5 16q38 0 57.5 -20.5t19.5 -55.5q0 -25 -12.5 -45t-33 -34
t-47.5 -21.5t-56 -7.5q-24 0 -46.5 2.5t-41 5.5t-31 5.5t-15.5 3.5z" />
    <glyph glyph-name="U" unicode="U" horiz-adv-x="843" 
d="M830 602q29 0 39 -11.5t10 -25.5q0 -17 -10 -37l-176 -391q-5 -12 -6.5 -24t2.5 -21.5t13.5 -15t26.5 -5.5q18 0 41 8.5t46.5 26.5t45.5 46.5t38 67.5q3 -2 7 -6q2 -4 4.5 -11.5t2.5 -19.5q0 -35 -20 -69t-53 -61t-74.5 -44t-84.5 -17q-31 0 -51.5 8.5t-32.5 22
t-16.5 31.5t-4.5 37q-37 -47 -96.5 -73t-127.5 -26q-42 0 -76 13t-53 40.5t-19 70t25 101.5l138 322q8 19 16.5 30t15.5 16.5t12 7t7 2.5l-77 -18q-21 -5 -56.5 -10t-69 -19t-58 -40t-24.5 -73q0 -26 11.5 -41.5t25.5 -24.5q16 -11 37 -16q-9 -13 -22 -24
q-11 -9 -27.5 -16.5t-39.5 -7.5q-30 0 -52 11.5t-37 30t-22 42t-7 47.5q0 47 15 79.5t40 54.5t58 35t69 19.5t73 8t71 1.5q49 0 90.5 3.5t71.5 8.5q35 5 64 12q-11 -11 -22 -29q-10 -15 -21.5 -37.5t-23.5 -52.5l-146 -345q-14 -32 -14.5 -55.5t8.5 -38.5t26.5 -22.5
t38.5 -7.5q64 -1 115 29.5t80 77.5l171 425h65z" />
    <glyph glyph-name="V" unicode="V" horiz-adv-x="584" 
d="M688 541q0 -44 -18 -87t-46 -82.5t-61 -74.5t-62 -63q-36 -34 -83.5 -68.5t-97.5 -65.5t-99.5 -56t-91.5 -39q-17 -6 -24 -2.5t0 26.5q19 89 33 171q6 35 11.5 71.5t9 71t5 65t-0.5 53.5q-4 39 -22.5 60t-44.5 20q-16 -1 -27 -8.5t-18 -16.5q-8 -11 -13 -25
q-27 34 -27 69t18.5 62t52.5 42t76 8q43 -7 70 -28.5t41.5 -54t18 -73.5t-1.5 -86q-7 -63 -21.5 -124t-28.5 -109q-18 -57 -37 -108q54 37 109.5 83t102 97t80 104.5t42.5 104.5q3 16 3.5 36t-4.5 38.5t-18 32.5t-38 20q7 21 20 38q11 14 30.5 24.5t50.5 8.5q36 -3 58 -18
t34 -35.5t15.5 -42.5t3.5 -39z" />
    <glyph glyph-name="W" unicode="W" horiz-adv-x="808" 
d="M75 455q-2 31 -3.5 58.5t-7.5 47t-18.5 29t-35.5 5.5q10 21 27 38q14 14 35.5 27t53.5 15q55 4 83 -31.5t23 -106.5q-2 -24 -5 -53.5t-7.5 -62t-10 -66.5t-10.5 -65q-12 -74 -27 -153q25 15 55 35t61.5 44t61.5 52t56 60l15 107q6 32 6.5 56t-6.5 38t-22.5 17t-40.5 -6
q1 33 12.5 59t29.5 43.5t40 26t44 8.5q43 -1 65.5 -20.5t29 -54.5t-1 -83.5t-23.5 -105.5l-87 -274q37 23 82 58t87 77.5t77 92t53 100.5q6 16 10 37.5t1.5 42t-13.5 36t-35 21.5q11 21 29 37q15 14 37 25t53 9q28 -2 46 -15t27 -32t10.5 -42.5t-2.5 -45.5q-9 -44 -32.5 -89
t-56 -87.5t-69 -79.5t-70.5 -65q-42 -34 -87 -66t-87 -60.5t-78.5 -52t-61.5 -38.5q-15 -9 -24.5 -3t-7.5 27l31 180q-39 -31 -78.5 -61.5t-75.5 -57.5t-67 -49t-54 -36q-15 -9 -22 -2t-10 26z" />
    <glyph glyph-name="X" unicode="X" horiz-adv-x="810" 
d="M553 687q-2 -17 -4 -53.5t-4 -72.5q-3 -43 -5 -91q26 32 56.5 64t64 57.5t68.5 41.5t71 16q43 0 69.5 -25t26.5 -74q0 -33 -12.5 -53t-30.5 -31t-36.5 -15t-30.5 -4q0 10 -1.5 21.5t-6 21.5t-14.5 17t-26 7q-21 0 -45.5 -9.5t-50.5 -26t-52 -38t-50 -46.5v-249
q0 -36 17 -56.5t59 -20.5q39 0 80.5 17t78.5 46t67.5 66.5t47.5 78.5q3 -1 6 -5q6 -8 6 -19q0 -47 -30.5 -93t-77.5 -83.5t-105 -60.5t-112 -23q-33 0 -63.5 9t-53 29.5t-36 52.5t-13.5 78v72q-25 -34 -58.5 -76t-73.5 -78.5t-86.5 -61.5t-96.5 -25q-42 0 -69 25t-27 76
q0 32 12.5 51.5t30.5 30.5t36.5 15t30.5 4q0 -10 1.5 -21.5t6 -21.5t14 -17t26.5 -7q26 0 58 17.5t66 44.5t67.5 61t61.5 67q0 67 2 123t4 98q3 48 6 87q-52 -4 -103 -12t-91 -26t-64.5 -47.5t-24.5 -76.5q0 -25 9.5 -41t22 -25t25 -12.5t19.5 -3.5q0 -6 -6 -15.5t-18 -18.5
t-29.5 -15.5t-40.5 -6.5q-29 0 -49.5 10.5t-33.5 28t-19 39.5t-6 45q0 66 30.5 107.5t79.5 65.5t109.5 34t120.5 14.5t113 7t86 10.5z" />
    <glyph glyph-name="Y" unicode="Y" horiz-adv-x="812" 
d="M477 -27q-38 -6 -78.5 -18.5t-74 -32t-55 -46.5t-21.5 -63q0 -21 14.5 -33.5t37.5 -12.5q35 0 60.5 16t45.5 44t36.5 65.5t34.5 80.5zM384 296q-20 -48 -4 -79.5t71 -31.5q31 0 56.5 10.5t44 25t30.5 30t18 24.5l135 327h65q29 0 39 -11.5t10 -25.5q0 -17 -10 -37
l-205 -463q35 5 69 12.5t64.5 24t56.5 45t45 73.5q3 -2 7 -6q2 -4 4.5 -11.5t2.5 -19.5q0 -72 -74.5 -122t-204.5 -70q-35 -84 -68 -143t-65 -86q-45 -37 -89 -49.5t-91 -12.5q-53 0 -86.5 30.5t-33.5 86.5q0 54 32 93t81.5 66t109.5 44.5t115 29.5l38 93q-13 -9 -30.5 -16
t-37 -12t-39.5 -7.5t-39 -2.5q-47 0 -79.5 17.5t-48.5 47.5t-15.5 70.5t20.5 86.5l90 212q8 19 16.5 30t15.5 16.5t12 7t7 2.5l-77 -18q-21 -5 -56.5 -10t-69 -19t-58 -40t-24.5 -73q0 -26 11.5 -41.5t25.5 -24.5q16 -11 37 -16q-9 -13 -22 -24q-11 -9 -27.5 -16.5
t-39.5 -7.5q-30 0 -52 11.5t-37 30t-22 42t-7 47.5q0 47 15 79.5t40 54.5t58 35t69 19.5t73 8t71 1.5q49 0 90.5 3.5t71.5 8.5q35 5 64 12q-11 -11 -22 -29q-10 -15 -21.5 -37.5t-23.5 -52.5z" />
    <glyph glyph-name="Z" unicode="Z" horiz-adv-x="647" 
d="M62 100q35 50 85.5 108.5t122.5 136.5q45 48 87.5 92.5t77 78.5t57 55.5t25.5 23.5q-14 -5 -49 -7t-75.5 -3.5t-79.5 -1.5h-61q-43 0 -64 -13t-30 -29q-11 -18 -9 -41q-22 4 -39 15q-14 9 -26.5 25.5t-11.5 42.5q0 33 13.5 52.5t33 30.5t43 14.5t44.5 3.5q20 0 47 -1
t55.5 -2t55.5 -2t48 -2q37 -2 75 -2.5t74 -0.5t68.5 1.5t59.5 4.5q-4 -12 -11 -25q-6 -11 -15 -27t-23 -34q-8 -11 -25 -31.5t-38.5 -46t-47 -55t-51.5 -59t-50.5 -57t-44.5 -49.5q-41 -46 -78 -84.5t-65.5 -67.5t-48 -46.5t-26.5 -21.5q14 4 51.5 7.5t81.5 6t85.5 3.5
t63.5 1q42 0 66.5 11t37.5 25t16.5 26.5t4.5 15.5q4 -3 13 -9t18.5 -15.5t16.5 -23t7 -30.5q0 -33 -13 -52.5t-33 -30.5t-43.5 -14.5t-44.5 -3.5q-20 0 -47 1t-55.5 2t-55.5 2t-48 2q-37 1 -76 1.5t-76 -0.5t-69 -2t-56 -2q5 15 12 33q6 15 16 33t24 37z" />
    <glyph glyph-name="bracketleft" unicode="[" horiz-adv-x="600" 
d="M669 738h-130l-319 -770h130l-20 -50h-221l365 878h220z" />
    <glyph glyph-name="backslash" unicode="\" horiz-adv-x="444" 
d="M358 -85l-314 765h90l310 -765h-86z" />
    <glyph glyph-name="bracketright" unicode="]" horiz-adv-x="704" 
d="M308 -82h-219l22 51h127l321 770h-129l22 57h214z" />
    <glyph glyph-name="asciicircum" unicode="^" horiz-adv-x="619" 
d="M516 479l-138 140l-194 -138h-60l248 197h41l151 -199h-48z" />
    <glyph glyph-name="underscore" unicode="_" horiz-adv-x="496" 
d="M383 -157h-310l23 58h309z" />
    <glyph glyph-name="grave" unicode="`" 
d="M342 281q-8 27 -28 37t-40 10q-28 0 -55 -17t-48.5 -44.5t-35 -63.5t-13.5 -74q0 -35 14.5 -51t40.5 -16q33 0 55 15.5t44 44.5zM367 342q5 12 14 23q8 8 19 15.5t28 7.5h77l-117 -258q-11 -26 -7 -46t34 -20q18 0 40 10.5t44 30t42.5 48.5t36.5 67q3 -2 7 -6
q2 -4 4.5 -11.5t2.5 -19.5q0 -35 -21 -69t-53.5 -61t-72 -44t-76.5 -17q-26 0 -41.5 7t-24.5 16t-13 19t-5 16q-38 -37 -71.5 -47.5t-68.5 -10.5q-36 0 -61.5 11t-41 30t-23 43t-7.5 50q0 43 18 89.5t51 84.5t80.5 63t106.5 25q31 0 56 -9t43 -37z" />
    <glyph glyph-name="a" unicode="a" 
d="M342 281q-8 27 -28 37t-40 10q-28 0 -55 -17t-48.5 -44.5t-35 -63.5t-13.5 -74q0 -35 14.5 -51t40.5 -16q33 0 55 15.5t44 44.5zM367 342q5 12 14 23q8 8 19 15.5t28 7.5h77l-117 -258q-11 -26 -7 -46t34 -20q18 0 40 10.5t44 30t42.5 48.5t36.5 67q3 -2 7 -6
q2 -4 4.5 -11.5t2.5 -19.5q0 -35 -21 -69t-53.5 -61t-72 -44t-76.5 -17q-26 0 -41.5 7t-24.5 16t-13 19t-5 16q-38 -37 -71.5 -47.5t-68.5 -10.5q-36 0 -61.5 11t-41 30t-23 43t-7.5 50q0 43 18 89.5t51 84.5t80.5 63t106.5 25q31 0 56 -9t43 -37z" />
    <glyph glyph-name="b" unicode="b" horiz-adv-x="522" 
d="M190 50q23 0 55 17t64 50q-39 20 -64 53t-25 78q0 37 11 63.5t28.5 43.5t39 25t41.5 8q31 0 52.5 -12t35 -31t20 -43t6.5 -48q0 -51 -22 -98q25 1 49.5 8t47 22.5t43 42t38.5 66.5q3 -1 6 -5q6 -8 6 -19q0 -41 -19.5 -73.5t-50.5 -55.5t-69.5 -35t-75.5 -12h-15
q-7 -8 -14.5 -15.5l-15.5 -15.5q-48 -44 -93.5 -58t-93.5 -14q-42 0 -75.5 14t-52.5 40t-21.5 62t15.5 80l188 449h53q32 0 40.5 -18.5t-5.5 -47.5l-87 -192l-101 -240q-11 -25 -7.5 -42t14.5 -27.5t26 -15t28 -4.5zM289 255q0 -34 14.5 -55t40.5 -32q20 43 20 86
q0 23 -8 39t-28 16q-12 0 -25.5 -14t-13.5 -40z" />
    <glyph glyph-name="c" unicode="c" horiz-adv-x="422" 
d="M217 -8q-36 0 -70.5 9.5t-62 30.5t-44 54t-16.5 81q0 59 23.5 101t57.5 68.5t72.5 39t69.5 12.5q72 0 107.5 -27.5t35.5 -73.5q0 -31 -25 -49t-68 -18q0 46 -10.5 65t-42.5 19q-29 0 -50.5 -13.5t-35.5 -34.5t-21 -47.5t-7 -52.5q0 -22 5 -40.5t18 -32t34 -21t53 -7.5
q88 0 147.5 45t91.5 120q3 -2 7 -6q2 -4 4.5 -11.5t2.5 -19.5q0 -35 -24 -69t-63 -61t-88.5 -44t-100.5 -17z" />
    <glyph glyph-name="d" unicode="d" 
d="M388 130q-5 -12 -7 -23.5t0.5 -21t10.5 -15.5t23 -6q18 0 40 10.5t44 30t42.5 48.5t36.5 67q3 -2 7 -6q2 -4 4.5 -11.5t2.5 -19.5q0 -35 -21 -69t-53.5 -61t-72 -44t-76.5 -17q-26 0 -41.5 7t-24.5 16t-13 19t-5 16q-38 -37 -71.5 -47.5t-68.5 -10.5q-36 0 -61.5 13.5
t-41 34.5t-23 47.5t-7.5 52.5q0 43 18 87t51 80t80.5 58.5t106.5 22.5q31 0 56 -9t43 -37l122 295h54q32 0 40.5 -18.5t-5.5 -47.5l-87 -192zM342 281q-8 27 -28 37t-40 10q-28 0 -55 -17t-48.5 -44.5t-35 -63.5t-13.5 -74q0 -35 14.5 -51t40.5 -16q33 0 55 15.5t44 44.5z
" />
    <glyph glyph-name="e" unicode="e" horiz-adv-x="445" 
d="M282 263q0 23 -10.5 32t-31.5 9q-24 0 -45 -13.5t-35.5 -36t-20 -50.5t2.5 -58q17 8 41 20.5t46 27.5t37.5 33t15.5 36zM251 55q51 0 91 11.5t70 33.5t52 52t38 68q3 -2 7 -6q2 -4 4.5 -11.5t2.5 -19.5q0 -35 -21.5 -69t-59 -61t-89 -44t-112.5 -17q-44 0 -81 10.5
t-64.5 32t-43 54t-15.5 76.5q0 49 18 90t48 70.5t69 46t80 16.5q66 0 99 -26t33 -74q0 -36 -25 -67.5t-59.5 -57t-70.5 -43.5t-58 -27q9 -16 32 -27t55 -11z" />
    <glyph glyph-name="f" unicode="f" horiz-adv-x="405" 
d="M377 551q2 25 -5.5 36.5t-20.5 11.5q-15 0 -25.5 -6.5t-18 -17t-13 -23t-10.5 -24.5l-132 -311q40 24 79 61t70 81.5t51.5 94t24.5 97.5zM-6 -166q-10 -23 -2.5 -36.5t26.5 -13.5q23 0 45 12t39 33t28.5 49t14.5 61q3 37 2 64.5t-5 49.5t-11.5 39t-16.5 32zM304 44
q-29 0 -55 7t-48 17q8 -26 12 -57t2 -72q-2 -47 -19.5 -90.5t-47 -76.5t-69.5 -52.5t-87 -19.5q-39 0 -63 14.5t-34.5 37.5t-8.5 51.5t14 57.5l271 650q12 30 27 60t35 54t48.5 39.5t67.5 15.5q22 0 42 -6.5t34.5 -21.5t22.5 -39.5t5 -61.5q-5 -67 -32 -127t-66.5 -110.5
t-86.5 -90.5t-92 -67q26 -24 56.5 -36.5t60.5 -15.5t58.5 3.5t49.5 22.5q13 9 24 24.5t19 29.5q10 17 18 36q3 -2 7 -6q2 -4 4.5 -11.5t2.5 -19.5q0 -33 -14.5 -58.5t-38.5 -43.5t-55 -27.5t-64 -9.5z" />
    <glyph glyph-name="g" unicode="g" 
d="M342 281q-8 21 -24 34t-45 13q-30 0 -57 -17.5t-48 -46t-33 -63.5t-12 -71q0 -32 14 -46.5t38 -14.5q38 0 62.5 18.5t39.5 36.5zM194 -76q-21 -5 -43 -15.5t-39.5 -25t-29 -32t-11.5 -37.5q0 -11 6 -20.5t20 -9.5t28 7.5t23 27.5zM388 130l-46 -111q88 23 146 74.5
t90 126.5q3 -2 7 -6q2 -4 4.5 -11.5t2.5 -19.5q0 -35 -20 -69.5t-56.5 -65.5t-87.5 -55.5t-112 -38.5l-47 -113q-29 -71 -75 -106t-96 -35q-48 0 -73 24.5t-25 66.5q0 43 20 76t52 57.5t71 40.5t78 25l20 49q-28 -19 -54.5 -28t-56.5 -9q-33 0 -55 13t-36 32.5t-20 43.5
t-6 47q0 42 17 86.5t50 80.5t80.5 59.5t108.5 23.5q31 0 56 -9t43 -37q5 12 14 23q8 8 19 15.5t28 7.5h77z" />
    <glyph glyph-name="h" unicode="h" horiz-adv-x="522" 
d="M229 637h54q32 0 40.5 -18.5t-5.5 -47.5l-87 -192l-16 -39q5 6 19 14t33.5 15.5t42.5 13t46 5.5q40 0 62 -12t30.5 -31t5 -43.5t-13.5 -48.5l-51 -123q-11 -26 -6 -46t33 -20q18 0 40 10.5t44 30t42.5 48.5t36.5 67q3 -2 7 -6q2 -4 4.5 -11.5t2.5 -19.5
q0 -31 -18.5 -64.5t-51 -61.5t-75.5 -46.5t-92 -18.5q-29 0 -48.5 10.5t-30.5 27.5t-12 38.5t8 43.5l57 138q14 35 8 51.5t-38 16.5q-17 0 -34 -5.5t-33 -14.5t-29.5 -20t-23.5 -21l-106 -257h-54q-32 0 -40.5 18.5t5.5 47.5l87 192z" />
    <glyph glyph-name="i" unicode="i" horiz-adv-x="273" 
d="M129 133q-29 -69 32 -69q42 0 89.5 40.5t79.5 115.5q3 -2 7 -6q2 -4 4.5 -11.5t2.5 -19.5q0 -31 -18.5 -64.5t-51 -61.5t-75.5 -46.5t-92 -18.5q-36 0 -58 13t-31 35.5t-6 51t16 60.5l98 236h54q32 0 40.5 -18.5t-5.5 -47.5zM156 464q0 16 7 30t18.5 25t26 17.5t29.5 6.5
q20 0 32.5 -11.5t12.5 -31.5q0 -16 -7 -30t-18.5 -25t-26 -17.5t-29.5 -6.5q-20 0 -32.5 11.5t-12.5 31.5z" />
    <glyph glyph-name="j" unicode="j" horiz-adv-x="273" 
d="M82 19q88 23 151.5 70.5t96.5 130.5q3 -2 7 -6q2 -4 4.5 -11.5t2.5 -19.5q0 -37 -22 -72t-61 -65t-91.5 -54t-113.5 -38l-47 -113q-29 -71 -75 -106t-96 -35q-48 0 -73 24.5t-25 66.5q0 43 20 76t52 57.5t71 40.5t78 25l165 398h54q32 0 40.5 -18.5t-5.5 -47.5l-87 -192z
M156 464q0 16 7 30t18.5 25t26 17.5t29.5 6.5q20 0 32.5 -11.5t12.5 -31.5q0 -16 -7 -30t-18.5 -25t-26 -17.5t-29.5 -6.5q-20 0 -32.5 11.5t-12.5 31.5zM-66 -76q-21 -5 -43 -15.5t-39.5 -25t-29 -32t-11.5 -37.5q0 -11 6 -20.5t20 -9.5t28 7.5t23 27.5z" />
    <glyph glyph-name="k" unicode="k" horiz-adv-x="450" 
d="M74 0h-54q-32 0 -40.5 18.5t5.5 47.5l87 192l157 379h54q32 0 40.5 -18.5t-5.5 -47.5l-87 -192l-10 -23q18 13 46 22.5t60 9.5q36 0 59.5 -23.5t23.5 -62.5q0 -36 -14.5 -62t-37.5 -44.5t-51 -32t-55 -23.5q3 -11 10 -24.5t17.5 -25t25 -19t34.5 -7.5q41 0 88.5 40.5
t79.5 115.5q3 -2 7 -6q2 -4 4.5 -11.5t2.5 -19.5q0 -31 -18.5 -64.5t-51 -61.5t-75.5 -46.5t-92 -18.5q-29 0 -51.5 11.5t-39 29t-27 37t-14.5 36.5l-37 -9zM312 279q0 48 -38 48q-22 0 -43 -10t-32 -20q-8 -19 -18.5 -42.5t-19.5 -44.5q-11 -25 -21 -50q15 5 31 9
q14 4 28.5 9t28.5 12q35 17 59.5 39t24.5 50z" />
    <glyph glyph-name="l" unicode="l" horiz-adv-x="273" 
d="M129 133q-29 -69 32 -69q42 0 89.5 40.5t79.5 115.5q3 -2 7 -6q2 -4 4.5 -11.5t2.5 -19.5q0 -31 -18.5 -64.5t-51 -61.5t-75.5 -46.5t-92 -18.5q-36 0 -58 13t-31 35.5t-6 51t16 60.5l201 485h54q32 0 40.5 -18.5t-5.5 -47.5l-87 -192z" />
    <glyph glyph-name="m" unicode="m" horiz-adv-x="711" 
d="M298 260q4 10 6 20.5t-1 18.5t-11 13.5t-24 5.5q-23 0 -44 -13t-35 -25l-97 -234l-19 -46h-54q-32 0 -40.5 18.5t5.5 47.5l87 192l54 130h54q22 0 25 -13.5t1 -33.5q9 7 22 15.5t28.5 15.5t32 11.5t32.5 4.5q41 0 62 -12t29 -32q29 22 65 33t69 11q43 0 64.5 -14
t28 -35.5t1 -48t-15.5 -51.5l-45 -109q-11 -26 -6 -46t33 -20q18 0 40 10.5t44 30t42.5 48.5t36.5 67q3 -2 7 -6q2 -4 4.5 -11.5t2.5 -19.5q0 -31 -18.5 -64.5t-51 -61.5t-75.5 -46.5t-92 -18.5q-29 0 -48.5 10.5t-30.5 27.5t-12 38.5t8 43.5l58 140q4 11 7 22.5t1.5 21.5
t-9.5 16t-26 6q-23 0 -44 -13t-35 -25l-116 -280h-54q-32 0 -40.5 18.5t5.5 47.5z" />
    <glyph glyph-name="n" unicode="n" horiz-adv-x="522" 
d="M71 258l54 130h54q19 0 23.5 -15.5t2.5 -30.5q28 18 69.5 32t81.5 14t62 -12t30.5 -31t5 -43.5t-13.5 -48.5l-51 -123q-11 -26 -6 -46t33 -20q18 0 40 10.5t44 30t42.5 48.5t36.5 67q3 -2 7 -6q2 -4 4.5 -11.5t2.5 -19.5q0 -31 -18.5 -64.5t-51 -61.5t-75.5 -46.5
t-92 -18.5q-29 0 -48.5 10.5t-30.5 27.5t-12 38.5t8 43.5l57 138q14 35 8 51.5t-38 16.5q-17 0 -34 -5.5t-33 -14.5t-29.5 -20t-23.5 -21l-107 -257h-54q-32 0 -40.5 18.5t5.5 47.5z" />
    <glyph glyph-name="o" unicode="o" horiz-adv-x="492" 
d="M408 161q32 -2 58.5 9.5t48.5 30.5t38 43.5t27 50.5q3 -1 6 -5q6 -8 6 -19q0 -41 -19.5 -74.5t-51 -56.5t-71 -34t-78.5 -6q-40 -50 -97 -78.5t-116 -28.5q-32 0 -59 10.5t-46.5 29.5t-30.5 45t-11 57q0 50 23 96t59.5 81t82.5 56t93 21q28 0 56 -7.5t50 -24t35.5 -43.5
t13.5 -65q0 -24 -4.5 -48t-12.5 -40zM331 253q0 32 -9 47t-19 15q-9 0 -16 -8t-11.5 -20t-6 -27.5t-0.5 -30.5q2 -24 13 -37.5t31 -18.5q8 14 13 37t5 43zM254 329q-35 -9 -62 -29.5t-46.5 -48.5t-29.5 -60.5t-10 -63.5q0 -29 14.5 -53t46.5 -24q10 0 25 4t30.5 12.5
t29.5 21t23 30.5q-33 10 -53 35t-22 64q-2 32 11.5 62t42.5 50z" />
    <glyph glyph-name="p" unicode="p" horiz-adv-x="520" 
d="M126 388h53q12 0 18 -5.5t8 -13.5t0.5 -18.5t-3.5 -19.5q31 29 66 43.5t70 14.5q19 0 40.5 -5t39.5 -19t30 -38.5t12 -63.5q0 -33 -10.5 -64.5t-29 -59.5t-43 -52t-52.5 -40q94 1 153 43t99 130q3 -2 7 -6q2 -4 4.5 -11.5t2.5 -19.5q0 -35 -20 -69t-55 -61t-83 -44
t-104 -17q-83 0 -142 15t-93 43l-124 -302h-54q-32 0 -40.5 18.5t5.5 47.5l87 192zM346 252q0 33 -12 50.5t-44 17.5q-18 0 -34.5 -6t-30.5 -14t-24.5 -17t-16.5 -15l-65 -160q19 -21 41 -26.5t39 -5.5q30 0 56.5 17t47 43t32 57t11.5 59z" />
    <glyph glyph-name="q" unicode="q" 
d="M388 130l-63 -153q21 20 42 33.5t42 26.5t42.5 27t42.5 34.5t42 49.5t42 72q3 -2 7 -6q2 -4 4.5 -11.5t2.5 -19.5q0 -38 -20 -70t-51.5 -60.5t-70 -54t-74.5 -52t-66 -54.5t-45 -60l-36 -84h-54q-32 0 -40.5 18.5t5.5 47.5l88 195q-21 -10 -41.5 -13.5t-41.5 -3.5
q-36 0 -61.5 13.5t-41 34.5t-23 47t-7.5 52q0 43 18 87.5t51 80.5t80.5 58.5t106.5 22.5q31 0 56 -9t43 -37q5 12 14 23q8 8 19 15.5t28 7.5h77zM342 281q-8 27 -28 37t-40 10q-28 0 -55 -17t-48.5 -44.5t-35 -63.5t-13.5 -74q0 -35 14.5 -51t40.5 -16q33 0 55 15.5t44 44.5
z" />
    <glyph glyph-name="r" unicode="r" horiz-adv-x="488" 
d="M135 306q3 9 5 19.5t1 19.5t-6.5 15t-16.5 6q-19 0 -19 -22q0 -13 8 -22.5t28 -15.5zM321 -8q-51 0 -82.5 21t-35.5 67t20.5 93t78.5 94l-2 2q-26 -17 -57.5 -21.5t-69.5 -1.5q-70 6 -102.5 32.5t-32.5 68.5q0 43 23 62.5t56 19.5q32 0 49.5 -13.5t24 -34t4 -43
t-9.5 -40.5q60 -4 110.5 20t94.5 62q16 -8 23.5 -19t8 -23t-5 -23t-13.5 -18q-23 -20 -42 -44t-31.5 -49.5t-18 -51.5t-1.5 -48q3 -16 14.5 -27.5t34.5 -12.5q62 -3 108 39t78 117q3 -2 7 -6q2 -4 4.5 -11.5t2.5 -19.5q0 -35 -18.5 -69t-51 -61t-76 -44t-92.5 -17z" />
    <glyph glyph-name="s" unicode="s" horiz-adv-x="438" 
d="M209 312q-15 -22 -33 -47q-15 -21 -35 -48t-43 -56q-6 -17 -6 -32q0 -33 26.5 -53t59.5 -20q45 0 67 22.5t22 57.5q0 24 -9 43t-19.5 38.5t-19.5 41.5t-10 53zM49 191q32 38 63.5 82.5t56.5 79.5q23 31 46.5 42t49.5 11q23 0 37.5 -5t22.5 -13.5t11 -19t3 -21.5
q-11 0 -21.5 -4.5t-10.5 -24.5q0 -24 9 -42.5t20.5 -36.5t20.5 -38.5t9 -47.5q0 -23 -10 -47t-24 -36q51 14 92.5 48.5t70.5 101.5q3 -2 7 -6q2 -4 4.5 -11.5t2.5 -19.5q0 -37 -25 -71.5t-69.5 -61t-106.5 -42.5t-137 -16q-38 0 -71.5 8.5t-59 25t-40.5 40t-15 54.5t18 51
t46 20z" />
    <glyph glyph-name="t" unicode="t" horiz-adv-x="344" 
d="M346 380l-21 -51h-115l-77 -185q-17 -41 -5.5 -63t46.5 -22q36 0 70 11t63.5 32t53.5 50.5t40 67.5q3 -2 7 -6q2 -4 4.5 -11.5t2.5 -19.5q0 -35 -21.5 -69t-58.5 -61t-85 -44t-101 -17q-34 0 -62.5 12.5t-46 35.5t-21 54t13.5 69l68 166h-59l21 51h59l53 127h50
q32 0 40.5 -18.5t-5.5 -47.5l-29 -61h115z" />
    <glyph glyph-name="u" unicode="u" 
d="M386 388h54q32 0 40.5 -18.5t-5.5 -47.5l-87 -192q-5 -12 -7 -23.5t0.5 -21t10.5 -15.5t23 -6q18 0 40 10.5t44 30t42.5 48.5t36.5 67q3 -2 7 -6q2 -4 4.5 -11.5t2.5 -19.5q0 -35 -21 -69t-53.5 -61t-72 -44t-76.5 -17q-26 0 -41.5 7t-24.5 16t-13 19t-5 16
q-15 -14 -30.5 -24.5t-33.5 -18t-39.5 -11.5t-49.5 -4q-30 0 -56 11t-41.5 32t-18 51t12.5 68l97 234h54q32 0 40.5 -18.5t-5.5 -47.5l-79 -172q-10 -23 -10.5 -40t4.5 -27.5t14.5 -15.5t20.5 -5q35 0 61.5 15.5t49.5 44.5z" />
    <glyph glyph-name="v" unicode="v" horiz-adv-x="532" 
d="M155 -6q-23 16 -41 37t-30.5 43t-20 44.5t-8.5 41.5q-4 44 0.5 85t12.5 73q9 37 21 70h57q19 0 27.5 -8t9.5 -21.5t-2.5 -30.5t-8.5 -36q-9 -34 -15.5 -64.5t-6 -58.5t9.5 -52.5t30 -45.5q6 3 17.5 9t27.5 15.5t34.5 22.5t36.5 30q-21 23 -37 52.5t-16 65.5
q0 34 10.5 57.5t27.5 37.5t38 20.5t41 6.5q34 0 55.5 -10.5t34.5 -25.5t18 -32.5t5 -32.5q0 -23 -6.5 -44t-16.5 -39.5t-22 -34t-24 -25.5q25 -12 51 -12q12 0 28 1.5t32.5 10t32.5 26t30 50.5q3 -2 7 -6q2 -4 4.5 -11.5t2.5 -19.5q0 -27 -13.5 -46.5t-34.5 -32t-46 -19
t-47 -6.5q-29 0 -52 5.5t-43 15.5q-56 -47 -112 -71t-99 -35zM307 267q0 -23 10.5 -43t24.5 -34q20 25 27.5 45t7.5 37q0 15 -6 30.5t-27 15.5q-17 0 -27 -14.5t-10 -36.5z" />
    <glyph glyph-name="w" unicode="w" horiz-adv-x="769" 
d="M173 292q-9 -34 -15.5 -64.5t-6 -58.5t9.5 -52.5t30 -45.5q19 9 37.5 21t33 25t23.5 24t8 19q-4 44 0.5 85t12.5 73q9 37 21 70h57q19 0 27.5 -8t9.5 -21.5t-2.5 -30.5t-8.5 -36q-9 -34 -15.5 -64.5t-6 -58.5t9.5 -52.5t30 -45.5q6 3 17.5 9t27.5 15.5t34.5 22.5t36.5 30
q-21 23 -37 52.5t-16 65.5q0 34 10.5 57.5t27.5 37.5t38 20.5t41 6.5q34 0 55.5 -10.5t34.5 -25.5t18 -32.5t5 -32.5q0 -23 -6.5 -44t-16.5 -39.5t-22 -34t-24 -25.5q25 -12 51 -12q12 0 28 1.5t32.5 10t32.5 26t30 50.5q3 -2 7 -6q2 -4 4.5 -11.5t2.5 -19.5
q0 -27 -13.5 -46.5t-34.5 -32t-46 -19t-47 -6.5q-29 0 -52 5.5t-43 15.5q-56 -47 -112 -71t-99 -35q-26 18 -45.5 42t-32.5 50q-38 -38 -75 -58.5t-84 -33.5q-23 16 -41 37t-30.5 43t-20 44.5t-8.5 41.5q-4 44 0.5 85t12.5 73q9 37 21 70h57q19 0 27.5 -8t9.5 -21.5
t-2.5 -30.5t-8.5 -36zM545 267q0 -23 10.5 -43t24.5 -34q20 25 27.5 45t7.5 37q0 15 -6 30.5t-27 15.5q-17 0 -27 -14.5t-10 -36.5z" />
    <glyph glyph-name="x" unicode="x" horiz-adv-x="433" 
d="M274 -8q-40 0 -64 12.5t-38 35t-20.5 54t-12.5 69.5q-5 32 -8.5 55t-9 38t-13.5 22t-23 7q-20 0 -25.5 -10.5t-5.5 -26.5q-23 0 -41.5 13t-18.5 48q0 37 28.5 58t67.5 21q32 0 54 -10.5t36.5 -33.5t24 -60t15.5 -90q4 -35 8 -61t11 -43.5t19 -26t32 -8.5q63 0 115 43.5
t85 121.5q3 -2 7 -6q2 -4 4.5 -11.5t2.5 -19.5q0 -37 -18 -71.5t-49.5 -61t-73.5 -42.5t-89 -16zM52 -62q-19 -17 -37 -24.5t-36 -9.5q-19 -2 -39 0l349 445q12 18 30.5 25t36.5 10q20 2 51 -1z" />
    <glyph glyph-name="y" unicode="y" 
d="M386 388h54q32 0 40.5 -18.5t-5.5 -47.5l-87 -192l-46 -111q88 23 146 74.5t90 126.5q3 -2 7 -6q2 -4 4.5 -11.5t2.5 -19.5q0 -35 -20 -69.5t-56.5 -65.5t-87.5 -55.5t-112 -38.5l-47 -113q-29 -71 -75 -106t-96 -35q-48 0 -73 24.5t-25 66.5q0 43 20 76t52 57.5t71 40.5
t78 25l17 41q-20 -14 -44 -21.5t-58 -7.5q-30 0 -56 11t-41.5 32t-18.5 51t13 68l93 224h54q32 0 40.5 -18.5t-5.5 -47.5l-75 -162q-10 -23 -10.5 -40t4.5 -27.5t14.5 -15.5t20.5 -5q35 0 61.5 15.5t49.5 44.5zM194 -76q-21 -5 -43 -15.5t-39.5 -25t-29 -32t-11.5 -37.5
q0 -11 6 -20.5t20 -9.5t28 7.5t23 27.5z" />
    <glyph glyph-name="z" unicode="z" horiz-adv-x="448" 
d="M218 -25q-43 -11 -87.5 -23.5t-81 -31t-59.5 -44t-23 -60.5q0 -25 13.5 -40t42.5 -15q49 0 86 22.5t61.5 55.5t36.5 70t11 66zM371 297q-5 -9 -15 -26.5t-26 -38.5t-37.5 -44t-49.5 -45q6 1 14 0q6 -1 14.5 -3t16.5 -7q25 -17 31.5 -37t8.5 -34q51 13 98 48.5t79 110.5
q3 -2 7 -6q2 -4 4.5 -11.5t2.5 -19.5q0 -33 -16 -62.5t-42 -53t-58.5 -41t-65.5 -26.5q3 -56 -24 -109.5t-72 -96.5t-103.5 -69t-118.5 -26q-32 0 -55.5 9.5t-38.5 25.5t-22.5 36t-7.5 41q0 40 17.5 70.5t45 53t62.5 38.5t70 27t67 18.5t54 12.5q-1 7 -4.5 17.5t-11 18.5
t-20.5 11.5t-33 -3.5q-32 -11 -60 -24.5t-64 -23.5q-7 -2 -13.5 2.5t-12 12t-9 18t-3.5 20.5q49 16 88 32t72.5 38t65 53.5t66.5 78.5q-33 -11 -58 -10.5t-45.5 5t-38 8.5t-34.5 -1q-16 -5 -20.5 -13t-4.5 -24q-23 0 -41.5 13t-18.5 48q0 37 28.5 58t67.5 21q29 0 51 -3.5
t41.5 -8t38.5 -8t40 -3.5q20 0 34 2t25 5q11 4 21 8q16 -8 22.5 -18t6 -21t-5.5 -22.5t-10 -21.5z" />
    <glyph glyph-name="braceleft" unicode="{" horiz-adv-x="495" 
d="M560 789q-7 -17 -13 -32.5t-13 -32.5q-7 -1 -34 -5t-63.5 -17.5t-77.5 -39.5t-76 -70q-20 -26 -43 -54.5t-44 -58.5q-6 -9 -22 -28.5t-33 -39.5q-19 -24 -42 -50q9 -13 17 -27q7 -12 12 -27.5t7 -31.5q1 -10 1 -21v-22v-107q2 -42 13.5 -70.5t25.5 -46t27 -25.5t18 -11
l-24 -60q-6 3 -27.5 13t-46.5 31t-48 53.5t-33 79.5q-5 26 -7.5 54.5t-2.5 54.5q0 32 2 57t3 39v6q0 14 -4 27t-9.5 23t-11 17t-8.5 10q4 3 14.5 10.5t23.5 19.5t28 28.5t28 37.5q19 29 38.5 64t49.5 76q44 60 92 95.5t93.5 53.5t84.5 23.5t66 5.5q14 0 24 -1t15 -1z" />
    <glyph glyph-name="bar" unicode="|" horiz-adv-x="368" 
d="M138 -114v887h86v-887h-86z" />
    <glyph glyph-name="braceright" unicode="}" horiz-adv-x="571" 
d="M560 371q-6 -3 -19 -10.5t-29.5 -20.5t-33 -31t-29.5 -43q-25 -48 -57.5 -91t-72.5 -90q-39 -46 -80.5 -77.5t-77.5 -52t-63.5 -31t-37.5 -13.5q7 17 13 32.5t13 31.5q5 3 27.5 16t52 35t60 53t51.5 70q3 5 12.5 23t21 38.5t21.5 39t13 23.5q17 31 36.5 53.5t36.5 37.5
q19 18 37 29q-13 12 -24 27q-9 13 -16 29.5t-7 35.5q0 23 -0.5 41.5t-3.5 34.5q0 13 -3 24q-11 45 -35 72.5t-50 43.5t-49 22t-31 8q6 15 12 29.5t12 29.5q5 0 23.5 -1t43.5 -6.5t54 -17t56 -33t48.5 -55t31.5 -81.5q4 -19 7.5 -37.5t3.5 -38.5q0 -25 -7 -47q-4 -12 -4 -25
q0 -16 5.5 -29t12.5 -22.5t14.5 -16t10.5 -9.5z" />
    <glyph glyph-name="asciitilde" unicode="~" horiz-adv-x="833" 
d="M591 393q3 -5 13 -19.5t10 -35.5q0 -10 -3.5 -21t-12.5 -23q-7 -10 -19.5 -19t-37.5 -16q-13 -5 -43 -5q-14 0 -30 3q-6 1 -17 4t-24 7t-26.5 8.5l-25.5 8.5q-8 3 -14.5 6t-13.5 5q-18 8 -39 14.5t-43 6.5h-7q-17 -1 -27.5 -7.5t-17 -14.5t-9.5 -16.5t-4 -13.5
q-3 5 -13.5 20.5t-10.5 37.5q0 10 3.5 21t11.5 22q9 12 31 25t67 15h2q13 0 30 -3.5t34 -8.5t33 -11t28 -10q26 -10 55.5 -20.5t56.5 -10.5q17 0 28.5 6.5t18.5 15t10.5 17t5.5 12.5z" />
    <glyph glyph-name="registered" unicode="&#xae;" horiz-adv-x="832" 
d="M703 337q0 -60 -23 -113t-62.5 -92.5t-92.5 -62.5t-113 -23t-113 23t-92.5 62.5t-62.5 92.5t-23 113t23 113t62.5 92.5t92.5 62.5t113 23t113 -23t92.5 -62.5t62.5 -92.5t23 -113zM369 418q11 26 26 40t32 21h-3q-32 0 -60 -9.5t-48.5 -26t-32.5 -39.5t-12 -50
q0 -20 11 -28t18 -8q0 -5 -8.5 -16t-29.5 -11q-17 0 -27.5 7t-16.5 17t-8 20.5t-2 18.5q0 34 18.5 62.5t51 49t76.5 31.5t95 11q27 0 52.5 -5t45 -16t31 -29.5t11.5 -46.5q0 -22 -11 -42.5t-28.5 -37t-38 -28t-39.5 -16.5q5 -26 9.5 -42.5t9.5 -25.5t11.5 -12t15.5 -3
q29 0 54 10t44 27.5t29.5 42t10.5 53.5q0 50 -19.5 94.5t-52.5 77.5t-77.5 52.5t-94.5 19.5q-51 0 -95.5 -19.5t-77.5 -52.5t-52 -77.5t-19 -94.5q0 -51 19 -95.5t52 -77.5t77.5 -52t95.5 -19q69 0 125.5 34.5t88.5 91.5q-22 -25 -54.5 -40t-72.5 -15q-25 0 -40 11t-24 27.5
t-14 36.5t-8 37l-46 -4l-33 -78q-4 -8 -8 -13t-10.5 -9t-14.5 -4h-43l65 142zM383 308q51 2 86 19t51 54q5 13 6.5 29t-3.5 30.5t-18 24.5t-37 11q-3 -4 -14.5 -15t-25.5 -42z" />
    <glyph glyph-name="Ccedilla" unicode="&#xc7;" horiz-adv-x="637" 
d="M317 -8q-67 0 -117 18t-83.5 51.5t-50 80.5t-16.5 106q0 98 37 178t98 136.5t139 87t160 30.5q55 0 95.5 -12.5t67 -32t39.5 -44t13 -49.5q0 -35 -17 -58.5t-40.5 -37t-48.5 -16.5t-41 3q13 10 22 26.5t9 43.5q0 38 -32 55.5t-77 17.5q-70 0 -127 -29.5t-97.5 -76.5
t-62.5 -106t-22 -118q0 -49 14.5 -83t39.5 -55t57 -30.5t67 -9.5q69 0 131 20t111.5 51t83.5 67.5t48 69.5q3 -1 6 -5q6 -8 6 -19q0 -35 -25.5 -74.5t-70.5 -75.5t-105.5 -64t-130.5 -39q-5 -6 -5.5 -10.5t-0.5 -9.5q0 -6 5.5 -15t7.5 -18q3 -8 3 -17q0 -11 -4.5 -25
t-17.5 -32q-7 -10 -18 -19.5t-24.5 -17t-28.5 -12.5t-30 -5q-16 0 -31 6q-13 6 -19 17t-6 22q0 7 1 11l12 14l12 14q2 -4 8 -14t23 -12q5 -1 13 -1q11 0 20 2.5t17 10.5q10 8 13.5 16t3.5 15q0 6 -2.5 12t-6.5 13q-1 2 -2 5t-1 8q0 7 2.5 16t10.5 20q-9 -1 -17.5 -1h-17.5z
" />
    <glyph glyph-name="Odieresis" unicode="&#xd6;" horiz-adv-x="664" 
d="M447 680q44 0 73 -11t46 -26t24 -30.5t7 -24.5q-20 13 -49.5 21t-80.5 8q-42 0 -94.5 -19t-98 -60.5t-76.5 -108.5t-31 -163q0 -40 10.5 -75t31 -60.5t49.5 -40t67 -14.5q63 0 112 34t83 86.5t51.5 114t17.5 117.5q0 39 -15.5 56t-39.5 17q-12 0 -25.5 -5t-25 -15.5
t-19 -27t-7.5 -40.5q0 -22 7 -34.5t16 -18.5t18.5 -7.5t15.5 -1.5q0 -5 -4 -15t-13.5 -20t-24.5 -17.5t-36 -7.5q-17 0 -33 7t-28.5 21t-20 34.5t-7.5 48.5q0 41 16.5 74t43 56t59 35t65.5 12q40 0 66 -15.5t41.5 -38.5t21.5 -50t6 -50q0 -74 -26.5 -151t-76 -139.5
t-120 -102.5t-158.5 -40q-46 0 -89.5 17t-77 50.5t-54 83t-20.5 114.5q0 90 33.5 167.5t89.5 134.5t128.5 89t151.5 32zM427 783q0 -23 -16.5 -39.5t-39.5 -16.5q-24 0 -40.5 16.5t-16.5 39.5q0 24 16.5 40.5t40.5 16.5q23 0 39.5 -16.5t16.5 -40.5zM610 783
q0 -23 -16.5 -39.5t-39.5 -16.5q-24 0 -40.5 16.5t-16.5 39.5q0 24 16.5 40.5t40.5 16.5q23 0 39.5 -16.5t16.5 -40.5z" />
    <glyph glyph-name="Udieresis" unicode="&#xdc;" horiz-adv-x="843" 
d="M830 602q29 0 39 -11.5t10 -25.5q0 -17 -10 -37l-176 -391q-5 -12 -6.5 -24t2.5 -21.5t13.5 -15t26.5 -5.5q18 0 41 8.5t46.5 26.5t45.5 46.5t38 67.5q3 -2 7 -6q2 -4 4.5 -11.5t2.5 -19.5q0 -35 -20 -69t-53 -61t-74.5 -44t-84.5 -17q-31 0 -51.5 8.5t-32.5 22
t-16.5 31.5t-4.5 37q-37 -47 -96.5 -73t-127.5 -26q-42 0 -76 13t-53 40.5t-19 70t25 101.5l138 322q8 19 16.5 30t15.5 16.5t12 7t7 2.5l-77 -18q-21 -5 -56.5 -10t-69 -19t-58 -40t-24.5 -73q0 -26 11.5 -41.5t25.5 -24.5q16 -11 37 -16q-9 -13 -22 -24
q-11 -9 -27.5 -16.5t-39.5 -7.5q-30 0 -52 11.5t-37 30t-22 42t-7 47.5q0 47 15 79.5t40 54.5t58 35t69 19.5t73 8t71 1.5q49 0 90.5 3.5t71.5 8.5q35 5 64 12q-11 -11 -22 -29q-10 -15 -21.5 -37.5t-23.5 -52.5l-146 -345q-14 -32 -14.5 -55.5t8.5 -38.5t26.5 -22.5
t38.5 -7.5q64 -1 115 29.5t80 77.5l171 425h65zM643 777q0 -23 -16.5 -39.5t-39.5 -16.5q-24 0 -40.5 16.5t-16.5 39.5q0 24 16.5 40.5t40.5 16.5q23 0 39.5 -16.5t16.5 -40.5zM826 777q0 -23 -16.5 -39.5t-39.5 -16.5q-24 0 -40.5 16.5t-16.5 39.5q0 24 16.5 40.5
t40.5 16.5q23 0 39.5 -16.5t16.5 -40.5z" />
    <glyph glyph-name="ccedilla" unicode="&#xe7;" horiz-adv-x="422" 
d="M207 -7q-26 -1 -60.5 8.5t-62 30.5t-44 54t-16.5 81q0 59 23.5 101t57.5 68.5t72.5 39t69.5 12.5q72 0 107.5 -27.5t35.5 -73.5q0 -31 -25 -49t-68 -18q0 46 -10.5 65t-42.5 19q-29 0 -50.5 -13.5t-35.5 -34.5t-21 -47.5t-7 -52.5q0 -22 5 -40.5t18 -32t34 -21t53 -7.5
q88 0 147.5 45t91.5 120q3 -2 7 -6q2 -4 4.5 -11.5t2.5 -19.5q0 -28 -16 -56t-43.5 -52.5t-64 -43.5t-117.5 -35q-7 -2 -8 -8.5t-1 -11.5q0 -6 5.5 -15t7.5 -18q3 -8 3 -17q0 -11 -4.5 -25t-17.5 -32q-7 -10 -18 -19.5t-24.5 -17t-28.5 -12.5t-30 -5q-16 0 -31 6
q-13 6 -19 17t-6 22q0 7 1 11l12 14l12 14q2 -4 8 -14t23 -12q5 -1 13 -1q11 0 20 2.5t17 10.5q10 8 13.5 16t3.5 15q0 6 -2.5 12t-6.5 13q-1 2 -2 5t-1 8q0 7 2.5 16t10.5 23v0h1h2z" />
    <glyph glyph-name="odieresis" unicode="&#xf6;" horiz-adv-x="492" 
d="M408 161q32 -2 58.5 9.5t48.5 30.5t38 43.5t27 50.5q3 -1 6 -5q6 -8 6 -19q0 -41 -19.5 -74.5t-51 -56.5t-71 -34t-78.5 -6q-40 -50 -97 -78.5t-116 -28.5q-32 0 -59 10.5t-46.5 29.5t-30.5 45t-11 57q0 50 23 96t59.5 81t82.5 56t93 21q28 0 56 -7.5t50 -24t35.5 -43.5
t13.5 -65q0 -24 -4.5 -48t-12.5 -40zM331 253q0 32 -9 47t-19 15q-9 0 -16 -8t-11.5 -20t-6 -27.5t-0.5 -30.5q2 -24 13 -37.5t31 -18.5q8 14 13 37t5 43zM254 329q-35 -9 -62 -29.5t-46.5 -48.5t-29.5 -60.5t-10 -63.5q0 -29 14.5 -53t46.5 -24q10 0 25 4t30.5 12.5
t29.5 21t23 30.5q-33 10 -53 35t-22 64q-2 32 11.5 62t42.5 50zM211 489q0 -23 -16.5 -39.5t-39.5 -16.5q-24 0 -40.5 16.5t-16.5 39.5q0 24 16.5 40.5t40.5 16.5q23 0 39.5 -16.5t16.5 -40.5zM394 489q0 -23 -16.5 -39.5t-39.5 -16.5q-24 0 -40.5 16.5t-16.5 39.5
q0 24 16.5 40.5t40.5 16.5q23 0 39.5 -16.5t16.5 -40.5z" />
    <glyph glyph-name="divide" unicode="&#xf7;" horiz-adv-x="564" 
d="M335 115q0 -23 -16.5 -40t-39.5 -17t-40 17t-17 40t17 39.5t40 16.5t39.5 -16.5t16.5 -39.5zM419 377q0 -23 -16.5 -40t-39.5 -17q-24 0 -40.5 17t-16.5 40t16.5 39.5t40.5 16.5q23 0 39.5 -16.5t16.5 -39.5zM495 212h-404l21 59h404z" />
    <glyph glyph-name="udieresis" unicode="&#xfc;" 
d="M386 388h54q32 0 40.5 -18.5t-5.5 -47.5l-87 -192q-5 -12 -7 -23.5t0.5 -21t10.5 -15.5t23 -6q18 0 40 10.5t44 30t42.5 48.5t36.5 67q3 -2 7 -6q2 -4 4.5 -11.5t2.5 -19.5q0 -35 -21 -69t-53.5 -61t-72 -44t-76.5 -17q-26 0 -41.5 7t-24.5 16t-13 19t-5 16
q-15 -14 -30.5 -24.5t-33.5 -18t-39.5 -11.5t-49.5 -4q-30 0 -56 11t-41.5 32t-18 51t12.5 68l97 234h54q32 0 40.5 -18.5t-5.5 -47.5l-79 -172q-10 -23 -10.5 -40t4.5 -27.5t14.5 -15.5t20.5 -5q35 0 61.5 15.5t49.5 44.5zM279 489q0 -23 -16.5 -39.5t-39.5 -16.5
q-24 0 -40.5 16.5t-16.5 39.5q0 24 16.5 40.5t40.5 16.5q23 0 39.5 -16.5t16.5 -40.5zM462 489q0 -23 -16.5 -39.5t-39.5 -16.5q-24 0 -40.5 16.5t-16.5 39.5q0 24 16.5 40.5t40.5 16.5q23 0 39.5 -16.5t16.5 -40.5z" />
    <glyph glyph-name="Gbreve" unicode="&#x11e;" horiz-adv-x="681" 
d="M346 -27q-38 -6 -78.5 -18.5t-74 -32t-55 -46.5t-21.5 -63q0 -21 14.5 -33.5t37.5 -12.5q35 0 60.5 16t45.5 44t36.5 65.5t34.5 80.5zM469 275q9 20 25.5 37t42.5 17h85l-119 -264q35 5 69 12.5t64.5 24t56.5 45t45 73.5q3 -2 7 -6q2 -4 4.5 -11.5t2.5 -19.5
q0 -72 -74.5 -122t-204.5 -70q-35 -84 -68 -143t-65 -86q-45 -37 -89 -49.5t-91 -12.5q-53 0 -86.5 30.5t-33.5 86.5q0 54 32 93t81.5 66t109.5 44.5t115 29.5l44 106q-32 -22 -72.5 -36.5t-89.5 -14.5q-47 0 -86 14.5t-66.5 41.5t-43 65.5t-15.5 87.5q0 89 34 157.5
t90.5 115t128.5 70t149 23.5q55 0 96 -12.5t68 -32t40.5 -44t13.5 -49.5q0 -35 -17 -58.5t-40.5 -37t-48.5 -16.5t-41 3q13 10 22 26.5t9 43.5q0 16 -9 29t-24.5 23t-36 15.5t-42.5 5.5q-70 0 -122 -24t-87 -62.5t-52.5 -86t-17.5 -94.5q0 -44 13 -69.5t33 -39.5t43 -18
t44 -4q38 0 68.5 12t53 28t35.5 32t17 25zM619 866q-4 -9 -16.5 -32t-37 -47t-63.5 -43t-96 -19q-47 0 -79.5 19t-54 43t-32.5 47t-14 32h74q2 -6 8.5 -21.5t19.5 -31t34 -28t53 -12.5q36 0 61 12.5t41 28t24 31t10 21.5h68z" />
    <glyph glyph-name="gbreve" unicode="&#x11f;" 
d="M342 281q-8 21 -24 34t-45 13q-30 0 -57 -17.5t-48 -46t-33 -63.5t-12 -71q0 -32 14 -46.5t38 -14.5q38 0 62.5 18.5t39.5 36.5zM194 -76q-21 -5 -43 -15.5t-39.5 -25t-29 -32t-11.5 -37.5q0 -11 6 -20.5t20 -9.5t28 7.5t23 27.5zM388 130l-46 -111q88 23 146 74.5
t90 126.5q3 -2 7 -6q2 -4 4.5 -11.5t2.5 -19.5q0 -35 -20 -69.5t-56.5 -65.5t-87.5 -55.5t-112 -38.5l-47 -113q-29 -71 -75 -106t-96 -35q-48 0 -73 24.5t-25 66.5q0 43 20 76t52 57.5t71 40.5t78 25l20 49q-28 -19 -54.5 -28t-56.5 -9q-33 0 -55 13t-36 32.5t-20 43.5
t-6 47q0 42 17 86.5t50 80.5t80.5 59.5t108.5 23.5q31 0 56 -9t43 -37q5 12 14 23q8 8 19 15.5t28 7.5h77zM457 568q-4 -9 -16.5 -32t-37 -47t-63.5 -43t-96 -19q-47 0 -79.5 19t-54 43t-32.5 47t-14 32h74q2 -6 8.5 -21.5t19.5 -31t34 -28t53 -12.5q36 0 61 12.5t41 28
t24 31t10 21.5h68z" />
    <glyph glyph-name="Idotaccent" unicode="&#x130;" horiz-adv-x="531" 
d="M434 164q-22 -53 -51.5 -86.5t-61.5 -52.5t-65.5 -26t-62.5 -7q-21 0 -48 5t-50 19.5t-39 39.5t-16 65q0 29 9.5 51.5t24.5 37.5t34 22.5t37 7.5q27 0 44 -7.5t26.5 -19.5t13 -26.5t3.5 -27.5q-19 5 -37 4.5t-31.5 -7t-21.5 -20.5t-8 -36q0 -23 17 -37t43 -14
q29 0 49 11.5t35.5 34t29 54t30.5 72.5l129 317q23 56 59 86h-23q-45 0 -92.5 -9.5t-86.5 -31t-64 -58t-25 -90.5q0 -25 8.5 -40.5t20.5 -24.5t24.5 -12.5t20.5 -4.5q-2 -6 -8 -16t-17 -19.5t-27 -16.5t-39 -7q-27 0 -47 10t-34 27t-21 39t-7 46q0 52 20.5 92t53.5 69.5
t74.5 49t83.5 31.5t80 17t65 5q38 0 68.5 -4.5t52 -10.5t33.5 -11t13 -5q0 -1 -6 -7t-15.5 -19t-21 -33.5t-23.5 -50.5zM660 812q0 -26 -18.5 -44.5t-44.5 -18.5t-44.5 18.5t-18.5 44.5t18.5 44.5t44.5 18.5t44.5 -18.5t18.5 -44.5z" />
    <glyph glyph-name="dotlessi" unicode="&#x131;" horiz-adv-x="349" 
d="M129 133q-29 -69 32 -69q42 0 89.5 40.5t79.5 115.5q3 -2 7 -6q2 -4 4.5 -11.5t2.5 -19.5q0 -31 -18.5 -64.5t-51 -61.5t-75.5 -46.5t-92 -18.5q-36 0 -58 13t-31 35.5t-6 51t16 60.5l98 236h54q32 0 40.5 -18.5t-5.5 -47.5z" />
    <glyph glyph-name="Scedilla" unicode="&#x15e;" horiz-adv-x="590" 
d="M295 4q-12 -14 -14.5 -21t-2.5 -13t5.5 -15t7.5 -18q3 -8 3 -17q0 -11 -4.5 -25t-17.5 -32q-7 -10 -18 -19.5t-24.5 -17t-28.5 -12.5t-30 -5q-16 0 -31 6q-13 6 -19 17t-6 22q0 7 1 11l12 14l12 14q2 -4 8 -14t23 -12q5 -1 13 -1q11 0 20 2.5t17 10.5q10 8 13.5 16
t3.5 15q0 6 -2.5 12t-6.5 13q-1 2 -2 5t-1 8q0 7 2.5 16t10.5 20q4 6 6 8q45 0 0 0q-121 0 -183 52t-62 149q0 35 12 63.5t32 48.5t46 30.5t55 10.5q45 0 64.5 -24.5t19.5 -66.5q-15 -1 -34.5 -4t-36 -13t-28 -30t-11.5 -54q0 -47 32 -75t89 -28q38 0 70.5 11t56 31.5
t36.5 49.5t13 64q0 47 -16 82t-34.5 67t-34.5 66.5t-16 81.5q0 48 17.5 81.5t45.5 54.5t63.5 30.5t72.5 9.5q76 0 122 -34t46 -91q0 -14 -4 -29t-13.5 -27t-25 -20t-37.5 -8q-21 0 -33 7.5t-18 17.5q-7 11 -9 26q6 0 14.5 1.5t17 6.5t14.5 14t6 24q0 24 -15 39.5t-49 15.5
q-36 0 -59 -21t-23 -66q0 -46 16.5 -78t36 -63.5t36 -68.5t16.5 -94q0 -45 -13.5 -80.5t-37 -62.5t-55 -46t-152.5 -39v0z" />
    <glyph glyph-name="scedilla" unicode="&#x15f;" horiz-adv-x="438" 
d="M49 191q32 38 63.5 82.5t56.5 79.5q23 31 46.5 42t49.5 11q23 0 37.5 -5t22.5 -13.5t11 -19t3 -21.5q-11 0 -21.5 -4.5t-10.5 -24.5q0 -24 9 -42.5t20.5 -36.5t20.5 -38.5t9 -47.5q0 -23 -10 -47t-24 -36q51 14 92.5 48.5t70.5 101.5q3 -2 7 -6q2 -4 4.5 -11.5t2.5 -19.5
q0 -28 -14.5 -55t-40.5 -50t-64 -41.5t-209 -38.5q-9 -4 -11 -11t-2 -13t5.5 -15t7.5 -18q3 -8 3 -17q0 -11 -4.5 -25t-17.5 -32q-7 -10 -18 -19.5t-24.5 -17t-28.5 -12.5t-30 -5q-16 0 -31 6q-13 6 -19 17t-6 22q0 7 1 11l12 14l12 14q2 -4 8 -14t23 -12q5 -1 13 -1
q11 0 20 2.5t17 10.5q10 8 13.5 16t3.5 15q0 6 -2.5 12t-6.5 13q-1 2 -2 5t-1 8q0 7 2.5 16t9.5 20q3 4 4 5q2 0 1 0q0 -1 -33.5 7.5t-59 25t-40.5 40t-15 54.5t18 51t46 20zM209 312q-15 -22 -33 -47q-15 -21 -35 -48t-43 -56q-6 -17 -6 -32q0 -33 26.5 -53t59.5 -20
q45 0 67 22.5t22 57.5q0 24 -9 43t-19.5 38.5t-19.5 41.5t-10 53z" />
    <glyph glyph-name="uni018f" unicode="&#x18f;" horiz-adv-x="747" 
d="M358 -24q-102 5 -149 33.5t-77.5 90.5t-3.5 143t135 123.5t369 11.5q37 -12 23 -49q-232 23 -307.5 1t-111.5 -83t-4.5 -116.5t76 -68.5t91.5 -8t77.5 25t59 50t58.5 89q25 70 33 129.5t-9 107.5t-59 79t-112 33q-45 2 -85.5 -15t-60.5 -55q-13 -27 -12.5 -43.5
t8.5 -27.5q-19 -5 -42.5 -1.5t-40.5 17.5t-22 38t13 59q13 25 38.5 49.5t61.5 43t67 28.5t86 9q75 1 137.5 -38t97.5 -101.5t37.5 -148t-30.5 -169t-95 -144.5t-121 -77.5t-126 -14.5z" />
    <glyph glyph-name="uni0259" unicode="&#x259;" horiz-adv-x="456" 
d="M171 136q-8 -22 -1 -34t27 -19q23 -7 47 -1.5t45 22t35.5 41.5t16.5 56q-18 -2 -45 -6t-52.5 -11t-46 -19t-26.5 -29zM434 290q9 -19 13 -34q99 -21 99 -76q-19 20 -56 24.5t-36 -2.5q0 -20 -13 -56q-16 -46 -46.5 -79t-68.5 -51t-80 -21t-81 11q-62 21 -85 56.5t-7 80.5
q12 34 46 56t75 34.5t80.5 18t68.5 5.5q-1 19 -10.5 38t-36 28t-62 1.5t-63.5 -32.5t-35.5 4.5t21.5 52t72 32t90 -1.5q49 -16 75 -37t40 -52z" />
    <glyph glyph-name="endash" unicode="&#x2013;" horiz-adv-x="666" 
d="M618 263q-8 -17 -19 -31q-10 -12 -24 -22t-33 -10h-448q9 18 20 32q10 12 24 21.5t33 9.5h447z" />
    <glyph glyph-name="emdash" unicode="&#x2014;" horiz-adv-x="1000" 
d="M952 263q-8 -17 -19 -31q-10 -12 -24 -22t-33 -10h-782q9 18 20 32q10 12 24 21.5t33 9.5h781z" />
    <glyph glyph-name="quoteleft" unicode="&#x2018;" horiz-adv-x="200" 
d="M229 526q0 -16 -7 -29.5t-18 -23.5t-25 -16t-29 -6q-20 0 -33.5 11.5t-13.5 34.5q0 40 19.5 71.5t46 53t53 32.5t41.5 11q-25 -19 -43.5 -42.5t-28.5 -50.5q17 -2 27.5 -15t10.5 -31z" />
    <glyph glyph-name="quoteright" unicode="&#x2019;" horiz-adv-x="200" 
d="M183 570q0 16 7 29.5t18 23.5t25 16t29 6q20 0 33.5 -11.5t13.5 -34.5q0 -40 -19.5 -71.5t-46 -53t-53 -32.5t-41.5 -11q25 19 43.5 42.5t28.5 50.5q-17 2 -27.5 15t-10.5 31z" />
    <glyph glyph-name="quotedblleft" unicode="&#x201c;" horiz-adv-x="360" 
d="M229 526q0 -16 -7 -29.5t-18 -23.5t-25 -16t-29 -6q-20 0 -33.5 11.5t-13.5 34.5q0 40 19.5 71.5t46 53t53 32.5t41.5 11q-25 -19 -43.5 -42.5t-28.5 -50.5q17 -2 27.5 -15t10.5 -31zM389 526q0 -16 -7 -29.5t-18 -23.5t-25 -16t-29 -6q-20 0 -33.5 11.5t-13.5 34.5
q0 40 19.5 71.5t46 53t53 32.5t41.5 11q-25 -19 -43.5 -42.5t-28.5 -50.5q17 -2 27.5 -15t10.5 -31z" />
    <glyph glyph-name="quotedblright" unicode="&#x201d;" horiz-adv-x="360" 
d="M183 570q0 16 7 29.5t18 23.5t25 16t29 6q20 0 33.5 -11.5t13.5 -34.5q0 -40 -19.5 -71.5t-46 -53t-53 -32.5t-41.5 -11q25 19 43.5 42.5t28.5 50.5q-17 2 -27.5 15t-10.5 31zM343 570q0 16 7 29.5t18 23.5t25 16t29 6q20 0 33.5 -11.5t13.5 -34.5q0 -40 -19.5 -71.5
t-46 -53t-53 -32.5t-41.5 -11q25 19 43.5 42.5t28.5 50.5q-17 2 -27.5 15t-10.5 31z" />
    <glyph glyph-name="zero.001" horiz-adv-x="833" 
 />
    <glyph glyph-name="quotesingle.001" horiz-adv-x="200" 
d="M183 570q0 16 7 29.5t18 23.5t25 16t29 6q20 0 33.5 -11.5t13.5 -34.5q0 -40 -19.5 -71.5t-46 -53t-53 -32.5t-41.5 -11q25 19 43.5 42.5t28.5 50.5q-17 2 -27.5 15t-10.5 31z" />
    <glyph glyph-name="parenleft.001" horiz-adv-x="833" 
 />
    <glyph glyph-name="quotesingle.002" horiz-adv-x="525" 
d="M642 743q-21 -2 -54.5 -14t-71 -32.5t-74.5 -47.5t-64 -58q-34 -38 -69.5 -91.5t-60.5 -133.5q-18 -59 -25 -111t-5 -99q1 -24 7 -53.5t17.5 -58t29 -53.5t41.5 -39l-17 -43q-12 5 -34 16t-45.5 32t-45.5 53.5t-35 79.5q-18 67 -16 133.5t20 131t52 125.5t81 117
q42 49 93.5 85.5t104 60t102 34.5t88.5 11z" />
    <glyph glyph-name="grave.001" horiz-adv-x="286" 
d="M169 425l-116 87q-17 12 -20.5 27t7.5 26q14 14 30.5 9t25.5 -17l100 -132h-27z" />
    <glyph glyph-name="a.001" horiz-adv-x="833" 
 />
    <glyph glyph-name="j.001" horiz-adv-x="273" 
d="M82 19q88 23 151.5 70.5t96.5 130.5q3 -2 7 -6q2 -4 4.5 -11.5t2.5 -19.5q0 -37 -22 -72t-61 -65t-91.5 -54t-113.5 -38l-47 -113q-29 -71 -75 -106t-96 -35q-48 0 -73 24.5t-25 66.5q0 43 20 76t52 57.5t71 40.5t78 25l165 398h54q32 0 40.5 -18.5t-5.5 -47.5l-87 -192z
M156 464q0 16 7 30t18.5 25t26 17.5t29.5 6.5q20 0 32.5 -11.5t12.5 -31.5q0 -16 -7 -30t-18.5 -25t-26 -17.5t-29.5 -6.5q-20 0 -32.5 11.5t-12.5 31.5zM-66 -76q-21 -5 -43 -15.5t-39.5 -25t-29 -32t-11.5 -37.5q0 -11 6 -20.5t20 -9.5t28 7.5t23 27.5z" />
    <glyph glyph-name="k.001" horiz-adv-x="833" 
 />
    <glyph glyph-name="j.002" horiz-adv-x="450" 
d="M74 0h-54q-32 0 -40.5 18.5t5.5 47.5l87 192l157 379h54q32 0 40.5 -18.5t-5.5 -47.5l-87 -192l-10 -23q18 13 46 22.5t60 9.5q36 0 59.5 -23.5t23.5 -62.5q0 -36 -14.5 -62t-37.5 -44.5t-51 -32t-55 -23.5q3 -11 10 -24.5t17.5 -25t25 -19t34.5 -7.5q41 0 88.5 40.5
t79.5 115.5q3 -2 7 -6q2 -4 4.5 -11.5t2.5 -19.5q0 -31 -18.5 -64.5t-51 -61.5t-75.5 -46.5t-92 -18.5q-29 0 -51.5 11.5t-39 29t-27 37t-14.5 36.5l-37 -9zM312 279q0 48 -38 48q-22 0 -43 -10t-32 -20q-8 -19 -18.5 -42.5t-19.5 -44.5q-11 -25 -21 -50q15 5 31 9
q14 4 28.5 9t28.5 12q35 17 59.5 39t24.5 50z" />
  </font>
</defs>
</svg>
